<mxfile host="app.diagrams.net" agent="Mozilla/5.0 (Windows NT 10.0; Win64; x64) AppleWebKit/537.36 (KHTML, like Gecko) Chrome/124.0.0.0 Safari/537.36 SLBrowser/9.0.6.2081 SLBChan/111 SLBVPV/64-bit" version="26.1.3">
  <diagram name="第 1 页" id="mAQeCuffVy2qE_32JxzT">
    <mxGraphModel dx="2062" dy="815" grid="1" gridSize="10" guides="1" tooltips="1" connect="1" arrows="1" fold="1" page="1" pageScale="1" pageWidth="827" pageHeight="1169" math="0" shadow="0">
      <root>
        <mxCell id="0" />
        <mxCell id="1" parent="0" />
        <mxCell id="V9nqlXCoNzKhv72pdfjE-88" value="" style="edgeStyle=orthogonalEdgeStyle;rounded=0;orthogonalLoop=1;jettySize=auto;html=1;exitX=1;exitY=0.5;exitDx=0;exitDy=0;entryX=0;entryY=0.5;entryDx=0;entryDy=0;" parent="1" source="V9nqlXCoNzKhv72pdfjE-78" target="V9nqlXCoNzKhv72pdfjE-80" edge="1">
          <mxGeometry x="0.0053" relative="1" as="geometry">
            <mxPoint as="offset" />
          </mxGeometry>
        </mxCell>
        <mxCell id="V9nqlXCoNzKhv72pdfjE-78" value="" style="rounded=1;whiteSpace=wrap;html=1;fontStyle=1;fillColor=#f5f5f5;fontColor=#333333;strokeColor=default;dashed=1;" parent="1" vertex="1">
          <mxGeometry x="2770" y="1360" width="180" height="90" as="geometry" />
        </mxCell>
        <mxCell id="jH9_K3VRiRtCquy0PlLt-88" value="" style="rounded=0;whiteSpace=wrap;html=1;dashed=1;" parent="1" vertex="1">
          <mxGeometry x="-110" y="240" width="750" height="380" as="geometry" />
        </mxCell>
        <mxCell id="jH9_K3VRiRtCquy0PlLt-31" style="edgeStyle=orthogonalEdgeStyle;rounded=0;orthogonalLoop=1;jettySize=auto;html=1;exitX=0.5;exitY=0;exitDx=0;exitDy=0;exitPerimeter=0;" parent="1" edge="1">
          <mxGeometry relative="1" as="geometry">
            <mxPoint x="499.741935483871" y="405" as="targetPoint" />
            <mxPoint x="500" y="405" as="sourcePoint" />
          </mxGeometry>
        </mxCell>
        <mxCell id="jH9_K3VRiRtCquy0PlLt-28" style="edgeStyle=orthogonalEdgeStyle;rounded=0;orthogonalLoop=1;jettySize=auto;html=1;exitX=0.75;exitY=1;exitDx=0;exitDy=0;entryX=0.5;entryY=0;entryDx=0;entryDy=0;" parent="1" target="jH9_K3VRiRtCquy0PlLt-34" edge="1">
          <mxGeometry relative="1" as="geometry">
            <mxPoint x="500" y="350" as="targetPoint" />
            <mxPoint x="515" y="285" as="sourcePoint" />
          </mxGeometry>
        </mxCell>
        <mxCell id="jH9_K3VRiRtCquy0PlLt-29" value="数据模式" style="edgeLabel;html=1;align=center;verticalAlign=middle;resizable=0;points=[];" parent="jH9_K3VRiRtCquy0PlLt-28" vertex="1" connectable="0">
          <mxGeometry x="-0.2572" relative="1" as="geometry">
            <mxPoint as="offset" />
          </mxGeometry>
        </mxCell>
        <mxCell id="jH9_K3VRiRtCquy0PlLt-55" style="edgeStyle=orthogonalEdgeStyle;rounded=0;orthogonalLoop=1;jettySize=auto;html=1;exitX=0.25;exitY=1;exitDx=0;exitDy=0;" parent="1" target="jH9_K3VRiRtCquy0PlLt-37" edge="1">
          <mxGeometry relative="1" as="geometry">
            <Array as="points">
              <mxPoint x="485" y="310" />
              <mxPoint x="210" y="310" />
            </Array>
            <mxPoint x="485" y="285" as="sourcePoint" />
          </mxGeometry>
        </mxCell>
        <mxCell id="jH9_K3VRiRtCquy0PlLt-56" value="数据模式" style="edgeLabel;html=1;align=center;verticalAlign=middle;resizable=0;points=[];" parent="jH9_K3VRiRtCquy0PlLt-55" vertex="1" connectable="0">
          <mxGeometry x="0.1693" y="-2" relative="1" as="geometry">
            <mxPoint x="90" y="2" as="offset" />
          </mxGeometry>
        </mxCell>
        <mxCell id="jH9_K3VRiRtCquy0PlLt-11" style="edgeStyle=orthogonalEdgeStyle;rounded=0;orthogonalLoop=1;jettySize=auto;html=1;exitX=1;exitY=0.5;exitDx=0;exitDy=0;entryX=0;entryY=0.5;entryDx=0;entryDy=0;" parent="1" source="jH9_K3VRiRtCquy0PlLt-8" target="jH9_K3VRiRtCquy0PlLt-9" edge="1">
          <mxGeometry relative="1" as="geometry" />
        </mxCell>
        <mxCell id="jH9_K3VRiRtCquy0PlLt-12" value="本体模型" style="edgeLabel;html=1;align=center;verticalAlign=middle;resizable=0;points=[];" parent="jH9_K3VRiRtCquy0PlLt-11" vertex="1" connectable="0">
          <mxGeometry x="-0.1121" y="1" relative="1" as="geometry">
            <mxPoint as="offset" />
          </mxGeometry>
        </mxCell>
        <mxCell id="jH9_K3VRiRtCquy0PlLt-38" style="edgeStyle=orthogonalEdgeStyle;rounded=0;orthogonalLoop=1;jettySize=auto;html=1;exitX=0.566;exitY=1.027;exitDx=0;exitDy=0;entryX=0;entryY=0.5;entryDx=0;entryDy=0;exitPerimeter=0;" parent="1" source="jH9_K3VRiRtCquy0PlLt-8" target="jH9_K3VRiRtCquy0PlLt-36" edge="1">
          <mxGeometry relative="1" as="geometry">
            <Array as="points">
              <mxPoint x="72" y="330" />
              <mxPoint x="38" y="330" />
              <mxPoint x="38" y="555" />
            </Array>
          </mxGeometry>
        </mxCell>
        <mxCell id="jH9_K3VRiRtCquy0PlLt-39" value="抽取规则" style="edgeLabel;html=1;align=center;verticalAlign=middle;resizable=0;points=[];" parent="jH9_K3VRiRtCquy0PlLt-38" vertex="1" connectable="0">
          <mxGeometry x="-0.6954" y="-2" relative="1" as="geometry">
            <mxPoint y="28" as="offset" />
          </mxGeometry>
        </mxCell>
        <mxCell id="jH9_K3VRiRtCquy0PlLt-52" style="edgeStyle=orthogonalEdgeStyle;rounded=0;orthogonalLoop=1;jettySize=auto;html=1;exitX=0;exitY=0.5;exitDx=0;exitDy=0;entryX=0.503;entryY=0.014;entryDx=0;entryDy=0;entryPerimeter=0;" parent="1" source="jH9_K3VRiRtCquy0PlLt-8" target="MLpCybdQ0Om36iigvZgF-69" edge="1">
          <mxGeometry relative="1" as="geometry">
            <Array as="points">
              <mxPoint x="-45" y="270" />
            </Array>
            <mxPoint x="-30" y="420" as="targetPoint" />
          </mxGeometry>
        </mxCell>
        <mxCell id="jH9_K3VRiRtCquy0PlLt-53" value="抽取提示词" style="edgeLabel;html=1;align=center;verticalAlign=middle;resizable=0;points=[];" parent="jH9_K3VRiRtCquy0PlLt-52" vertex="1" connectable="0">
          <mxGeometry x="-0.493" y="-1" relative="1" as="geometry">
            <mxPoint y="63" as="offset" />
          </mxGeometry>
        </mxCell>
        <mxCell id="jH9_K3VRiRtCquy0PlLt-8" value="管理员" style="rounded=0;whiteSpace=wrap;html=1;" parent="1" vertex="1">
          <mxGeometry x="10" y="252" width="110" height="35" as="geometry" />
        </mxCell>
        <mxCell id="jH9_K3VRiRtCquy0PlLt-16" style="edgeStyle=orthogonalEdgeStyle;rounded=0;orthogonalLoop=1;jettySize=auto;html=1;exitX=1;exitY=0.5;exitDx=0;exitDy=0;entryX=0.239;entryY=0.461;entryDx=0;entryDy=0;entryPerimeter=0;" parent="1" source="jH9_K3VRiRtCquy0PlLt-9" target="MLpCybdQ0Om36iigvZgF-71" edge="1">
          <mxGeometry relative="1" as="geometry">
            <mxPoint x="460" y="270" as="targetPoint" />
          </mxGeometry>
        </mxCell>
        <mxCell id="jH9_K3VRiRtCquy0PlLt-17" value="实体、关系、属性定义" style="edgeLabel;html=1;align=center;verticalAlign=middle;resizable=0;points=[];" parent="jH9_K3VRiRtCquy0PlLt-16" vertex="1" connectable="0">
          <mxGeometry x="-0.0955" y="-1" relative="1" as="geometry">
            <mxPoint x="3" y="-1" as="offset" />
          </mxGeometry>
        </mxCell>
        <mxCell id="jH9_K3VRiRtCquy0PlLt-9" value="数据建模" style="rounded=1;whiteSpace=wrap;html=1;" parent="1" vertex="1">
          <mxGeometry x="210" y="255" width="80" height="30" as="geometry" />
        </mxCell>
        <mxCell id="jH9_K3VRiRtCquy0PlLt-40" style="edgeStyle=orthogonalEdgeStyle;rounded=0;orthogonalLoop=1;jettySize=auto;html=1;exitX=1.028;exitY=0.732;exitDx=0;exitDy=0;exitPerimeter=0;" parent="1" source="jH9_K3VRiRtCquy0PlLt-10" target="jH9_K3VRiRtCquy0PlLt-36" edge="1">
          <mxGeometry relative="1" as="geometry" />
        </mxCell>
        <mxCell id="jH9_K3VRiRtCquy0PlLt-41" value="结构化文本" style="edgeLabel;html=1;align=center;verticalAlign=middle;resizable=0;points=[];" parent="jH9_K3VRiRtCquy0PlLt-40" vertex="1" connectable="0">
          <mxGeometry x="-0.6317" y="2" relative="1" as="geometry">
            <mxPoint x="24" y="2" as="offset" />
          </mxGeometry>
        </mxCell>
        <mxCell id="jH9_K3VRiRtCquy0PlLt-50" style="edgeStyle=orthogonalEdgeStyle;rounded=0;orthogonalLoop=1;jettySize=auto;html=1;exitX=1.007;exitY=0.308;exitDx=0;exitDy=0;exitPerimeter=0;entryX=0.5;entryY=1;entryDx=0;entryDy=0;" parent="1" source="jH9_K3VRiRtCquy0PlLt-10" target="jH9_K3VRiRtCquy0PlLt-37" edge="1">
          <mxGeometry relative="1" as="geometry">
            <Array as="points">
              <mxPoint x="150" y="484" />
              <mxPoint x="230" y="484" />
            </Array>
          </mxGeometry>
        </mxCell>
        <mxCell id="jH9_K3VRiRtCquy0PlLt-51" value="文本块" style="edgeLabel;html=1;align=center;verticalAlign=middle;resizable=0;points=[];" parent="jH9_K3VRiRtCquy0PlLt-50" vertex="1" connectable="0">
          <mxGeometry x="-0.4126" relative="1" as="geometry">
            <mxPoint as="offset" />
          </mxGeometry>
        </mxCell>
        <mxCell id="jH9_K3VRiRtCquy0PlLt-10" value="&lt;div&gt;&lt;br&gt;&lt;/div&gt;&lt;div&gt;装备&lt;/div&gt;文档库" style="strokeWidth=2;html=1;shape=mxgraph.flowchart.database;whiteSpace=wrap;fillColor=#ffe6cc;strokeColor=#d79b00;" parent="1" vertex="1">
          <mxGeometry x="50" y="465" width="60" height="60" as="geometry" />
        </mxCell>
        <mxCell id="jH9_K3VRiRtCquy0PlLt-66" style="edgeStyle=orthogonalEdgeStyle;rounded=0;orthogonalLoop=1;jettySize=auto;html=1;exitX=0;exitY=0.85;exitDx=0;exitDy=0;exitPerimeter=0;entryX=0.75;entryY=0;entryDx=0;entryDy=0;" parent="1" source="jH9_K3VRiRtCquy0PlLt-18" target="jH9_K3VRiRtCquy0PlLt-37" edge="1">
          <mxGeometry relative="1" as="geometry" />
        </mxCell>
        <mxCell id="jH9_K3VRiRtCquy0PlLt-67" value="同义词" style="edgeLabel;html=1;align=center;verticalAlign=middle;resizable=0;points=[];" parent="jH9_K3VRiRtCquy0PlLt-66" vertex="1" connectable="0">
          <mxGeometry x="-0.5204" y="-1" relative="1" as="geometry">
            <mxPoint as="offset" />
          </mxGeometry>
        </mxCell>
        <mxCell id="jH9_K3VRiRtCquy0PlLt-68" style="edgeStyle=orthogonalEdgeStyle;rounded=0;orthogonalLoop=1;jettySize=auto;html=1;exitX=0;exitY=0.5;exitDx=0;exitDy=0;exitPerimeter=0;entryX=0.5;entryY=0;entryDx=0;entryDy=0;" parent="1" source="jH9_K3VRiRtCquy0PlLt-18" target="jH9_K3VRiRtCquy0PlLt-37" edge="1">
          <mxGeometry relative="1" as="geometry" />
        </mxCell>
        <mxCell id="jH9_K3VRiRtCquy0PlLt-69" value="专业型号术语" style="edgeLabel;html=1;align=center;verticalAlign=middle;resizable=0;points=[];" parent="jH9_K3VRiRtCquy0PlLt-68" vertex="1" connectable="0">
          <mxGeometry x="-0.0131" y="-3" relative="1" as="geometry">
            <mxPoint x="21" y="2" as="offset" />
          </mxGeometry>
        </mxCell>
        <mxCell id="jH9_K3VRiRtCquy0PlLt-18" value="&lt;div&gt;&lt;br&gt;&lt;/div&gt;&lt;div&gt;领域&lt;/div&gt;&lt;div&gt;知识库&lt;/div&gt;" style="strokeWidth=2;html=1;shape=mxgraph.flowchart.database;whiteSpace=wrap;fillColor=#f8cecc;strokeColor=#b85450;" parent="1" vertex="1">
          <mxGeometry x="340" y="340" width="60" height="60" as="geometry" />
        </mxCell>
        <mxCell id="jH9_K3VRiRtCquy0PlLt-19" value="同义词" style="text;html=1;align=center;verticalAlign=middle;whiteSpace=wrap;rounded=0;" parent="1" vertex="1">
          <mxGeometry x="460" y="120" width="60" height="30" as="geometry" />
        </mxCell>
        <mxCell id="jH9_K3VRiRtCquy0PlLt-20" value="专业型号术语" style="text;html=1;align=center;verticalAlign=middle;whiteSpace=wrap;rounded=0;" parent="1" vertex="1">
          <mxGeometry x="450" y="155" width="80" height="30" as="geometry" />
        </mxCell>
        <mxCell id="jH9_K3VRiRtCquy0PlLt-21" value="&lt;div&gt;&lt;br&gt;&lt;/div&gt;&lt;div&gt;领域&lt;/div&gt;&lt;div&gt;知识库&lt;/div&gt;" style="strokeWidth=2;html=1;shape=mxgraph.flowchart.database;whiteSpace=wrap;" parent="1" vertex="1">
          <mxGeometry x="-540" y="10" width="60" height="60" as="geometry" />
        </mxCell>
        <mxCell id="jH9_K3VRiRtCquy0PlLt-27" value="三元组抽取" style="text;html=1;align=center;verticalAlign=middle;whiteSpace=wrap;rounded=0;" parent="1" vertex="1">
          <mxGeometry x="-140" y="105" width="80" height="30" as="geometry" />
        </mxCell>
        <mxCell id="jH9_K3VRiRtCquy0PlLt-30" value="&lt;div&gt;&lt;br&gt;&lt;/div&gt;&lt;div&gt;&lt;span style=&quot;background-color: transparent; color: light-dark(rgb(0, 0, 0), rgb(255, 255, 255));&quot;&gt;问题&lt;/span&gt;&lt;/div&gt;&lt;div&gt;&lt;span style=&quot;background-color: transparent; color: light-dark(rgb(0, 0, 0), rgb(255, 255, 255));&quot;&gt;模板库&lt;/span&gt;&lt;/div&gt;" style="strokeWidth=2;html=1;shape=mxgraph.flowchart.database;whiteSpace=wrap;fillColor=#e1d5e7;strokeColor=#9673a6;" parent="1" vertex="1">
          <mxGeometry x="-430" y="10" width="60" height="60" as="geometry" />
        </mxCell>
        <mxCell id="jH9_K3VRiRtCquy0PlLt-34" value="图数据库&lt;div&gt;初始化&lt;/div&gt;" style="rounded=1;whiteSpace=wrap;html=1;" parent="1" vertex="1">
          <mxGeometry x="475" y="415" width="80" height="30" as="geometry" />
        </mxCell>
        <mxCell id="jH9_K3VRiRtCquy0PlLt-36" value="基于规则的&lt;div&gt;三元组抽取&lt;/div&gt;" style="rounded=1;whiteSpace=wrap;html=1;" parent="1" vertex="1">
          <mxGeometry x="210" y="540" width="80" height="30" as="geometry" />
        </mxCell>
        <mxCell id="jH9_K3VRiRtCquy0PlLt-37" value="基于大模型的&lt;div&gt;数据抽取&lt;/div&gt;" style="rounded=1;whiteSpace=wrap;html=1;" parent="1" vertex="1">
          <mxGeometry x="190" y="420" width="80" height="30" as="geometry" />
        </mxCell>
        <mxCell id="jH9_K3VRiRtCquy0PlLt-72" style="edgeStyle=orthogonalEdgeStyle;rounded=0;orthogonalLoop=1;jettySize=auto;html=1;entryX=0;entryY=0.5;entryDx=0;entryDy=0;jumpStyle=arc;" parent="1" source="MLpCybdQ0Om36iigvZgF-69" target="jH9_K3VRiRtCquy0PlLt-37" edge="1">
          <mxGeometry relative="1" as="geometry">
            <mxPoint x="-10" y="435" as="sourcePoint" />
          </mxGeometry>
        </mxCell>
        <mxCell id="jH9_K3VRiRtCquy0PlLt-73" value="抽取引擎" style="edgeLabel;html=1;align=center;verticalAlign=middle;resizable=0;points=[];" parent="jH9_K3VRiRtCquy0PlLt-72" vertex="1" connectable="0">
          <mxGeometry x="0.1773" y="-2" relative="1" as="geometry">
            <mxPoint as="offset" />
          </mxGeometry>
        </mxCell>
        <mxCell id="jH9_K3VRiRtCquy0PlLt-57" style="edgeStyle=orthogonalEdgeStyle;rounded=0;orthogonalLoop=1;jettySize=auto;html=1;exitX=1;exitY=0.5;exitDx=0;exitDy=0;entryX=0.25;entryY=1;entryDx=0;entryDy=0;" parent="1" source="jH9_K3VRiRtCquy0PlLt-36" target="jH9_K3VRiRtCquy0PlLt-74" edge="1">
          <mxGeometry relative="1" as="geometry">
            <mxPoint x="424.15999999999985" y="512.24" as="targetPoint" />
          </mxGeometry>
        </mxCell>
        <mxCell id="jH9_K3VRiRtCquy0PlLt-62" value="三元组" style="edgeLabel;html=1;align=center;verticalAlign=middle;resizable=0;points=[];" parent="jH9_K3VRiRtCquy0PlLt-57" vertex="1" connectable="0">
          <mxGeometry x="-0.4136" y="1" relative="1" as="geometry">
            <mxPoint as="offset" />
          </mxGeometry>
        </mxCell>
        <mxCell id="jH9_K3VRiRtCquy0PlLt-58" style="edgeStyle=orthogonalEdgeStyle;rounded=0;orthogonalLoop=1;jettySize=auto;html=1;exitX=1;exitY=0.5;exitDx=0;exitDy=0;entryX=0.25;entryY=0;entryDx=0;entryDy=0;" parent="1" source="jH9_K3VRiRtCquy0PlLt-37" target="jH9_K3VRiRtCquy0PlLt-74" edge="1">
          <mxGeometry relative="1" as="geometry">
            <mxPoint x="422.9000000000001" y="458.48" as="targetPoint" />
            <Array as="points">
              <mxPoint x="400" y="435" />
            </Array>
          </mxGeometry>
        </mxCell>
        <mxCell id="jH9_K3VRiRtCquy0PlLt-59" value="三元组" style="edgeLabel;html=1;align=center;verticalAlign=middle;resizable=0;points=[];" parent="jH9_K3VRiRtCquy0PlLt-58" vertex="1" connectable="0">
          <mxGeometry x="-0.3904" y="2" relative="1" as="geometry">
            <mxPoint as="offset" />
          </mxGeometry>
        </mxCell>
        <mxCell id="jH9_K3VRiRtCquy0PlLt-60" style="edgeStyle=orthogonalEdgeStyle;rounded=0;orthogonalLoop=1;jettySize=auto;html=1;exitX=0.75;exitY=1;exitDx=0;exitDy=0;entryX=0;entryY=0.5;entryDx=0;entryDy=0;" parent="1" source="jH9_K3VRiRtCquy0PlLt-37" target="jH9_K3VRiRtCquy0PlLt-74" edge="1">
          <mxGeometry relative="1" as="geometry">
            <mxPoint x="390" y="485" as="targetPoint" />
            <Array as="points">
              <mxPoint x="250" y="485" />
            </Array>
          </mxGeometry>
        </mxCell>
        <mxCell id="jH9_K3VRiRtCquy0PlLt-61" value="实体和属性" style="edgeLabel;html=1;align=center;verticalAlign=middle;resizable=0;points=[];" parent="jH9_K3VRiRtCquy0PlLt-60" vertex="1" connectable="0">
          <mxGeometry x="-0.1489" y="-1" relative="1" as="geometry">
            <mxPoint as="offset" />
          </mxGeometry>
        </mxCell>
        <mxCell id="jH9_K3VRiRtCquy0PlLt-63" style="edgeStyle=orthogonalEdgeStyle;rounded=0;orthogonalLoop=1;jettySize=auto;html=1;exitX=1;exitY=0.5;exitDx=0;exitDy=0;entryX=0.5;entryY=0;entryDx=0;entryDy=0;entryPerimeter=0;" parent="1" source="jH9_K3VRiRtCquy0PlLt-34" target="jH9_K3VRiRtCquy0PlLt-75" edge="1">
          <mxGeometry relative="1" as="geometry">
            <mxPoint x="470" y="485" as="targetPoint" />
          </mxGeometry>
        </mxCell>
        <mxCell id="jH9_K3VRiRtCquy0PlLt-64" value="数据模式" style="edgeLabel;html=1;align=center;verticalAlign=middle;resizable=0;points=[];" parent="jH9_K3VRiRtCquy0PlLt-63" vertex="1" connectable="0">
          <mxGeometry x="-0.5271" relative="1" as="geometry">
            <mxPoint x="4" y="40" as="offset" />
          </mxGeometry>
        </mxCell>
        <mxCell id="jH9_K3VRiRtCquy0PlLt-70" style="edgeStyle=orthogonalEdgeStyle;rounded=0;orthogonalLoop=1;jettySize=auto;html=1;exitX=1;exitY=0.5;exitDx=0;exitDy=0;exitPerimeter=0;entryX=0.75;entryY=0;entryDx=0;entryDy=0;" parent="1" source="jH9_K3VRiRtCquy0PlLt-18" target="jH9_K3VRiRtCquy0PlLt-74" edge="1">
          <mxGeometry relative="1" as="geometry">
            <mxPoint x="449.3599999999997" y="455.96000000000004" as="targetPoint" />
          </mxGeometry>
        </mxCell>
        <mxCell id="jH9_K3VRiRtCquy0PlLt-71" value="实体和属性" style="edgeLabel;html=1;align=center;verticalAlign=middle;resizable=0;points=[];" parent="jH9_K3VRiRtCquy0PlLt-70" vertex="1" connectable="0">
          <mxGeometry x="-0.013" y="2" relative="1" as="geometry">
            <mxPoint as="offset" />
          </mxGeometry>
        </mxCell>
        <mxCell id="jH9_K3VRiRtCquy0PlLt-74" value="图数据库&lt;div&gt;插入和更新&lt;/div&gt;" style="rounded=1;whiteSpace=wrap;html=1;" parent="1" vertex="1">
          <mxGeometry x="380" y="470" width="80" height="30" as="geometry" />
        </mxCell>
        <mxCell id="jH9_K3VRiRtCquy0PlLt-75" value="&lt;div&gt;&lt;br&gt;&lt;/div&gt;&lt;div&gt;装备&lt;/div&gt;知识图谱" style="strokeWidth=2;html=1;shape=mxgraph.flowchart.database;whiteSpace=wrap;fillColor=#dae8fc;strokeColor=#6c8ebf;" parent="1" vertex="1">
          <mxGeometry x="555" y="510" width="60" height="60" as="geometry" />
        </mxCell>
        <mxCell id="jH9_K3VRiRtCquy0PlLt-76" style="edgeStyle=orthogonalEdgeStyle;rounded=0;orthogonalLoop=1;jettySize=auto;html=1;exitX=0.75;exitY=1;exitDx=0;exitDy=0;entryX=-0.01;entryY=0.352;entryDx=0;entryDy=0;entryPerimeter=0;" parent="1" source="jH9_K3VRiRtCquy0PlLt-74" target="jH9_K3VRiRtCquy0PlLt-75" edge="1">
          <mxGeometry relative="1" as="geometry" />
        </mxCell>
        <mxCell id="jH9_K3VRiRtCquy0PlLt-77" value="三元组" style="edgeLabel;html=1;align=center;verticalAlign=middle;resizable=0;points=[];" parent="jH9_K3VRiRtCquy0PlLt-76" vertex="1" connectable="0">
          <mxGeometry x="-0.0673" y="3" relative="1" as="geometry">
            <mxPoint x="1" y="2" as="offset" />
          </mxGeometry>
        </mxCell>
        <mxCell id="jH9_K3VRiRtCquy0PlLt-78" style="edgeStyle=orthogonalEdgeStyle;rounded=0;orthogonalLoop=1;jettySize=auto;html=1;exitX=0.5;exitY=1;exitDx=0;exitDy=0;entryX=0.008;entryY=0.699;entryDx=0;entryDy=0;entryPerimeter=0;" parent="1" source="jH9_K3VRiRtCquy0PlLt-74" target="jH9_K3VRiRtCquy0PlLt-75" edge="1">
          <mxGeometry relative="1" as="geometry" />
        </mxCell>
        <mxCell id="jH9_K3VRiRtCquy0PlLt-79" value="实体和属性" style="edgeLabel;html=1;align=center;verticalAlign=middle;resizable=0;points=[];" parent="jH9_K3VRiRtCquy0PlLt-78" vertex="1" connectable="0">
          <mxGeometry x="0.0524" y="3" relative="1" as="geometry">
            <mxPoint x="1" y="2" as="offset" />
          </mxGeometry>
        </mxCell>
        <mxCell id="jH9_K3VRiRtCquy0PlLt-80" value="用户" style="rounded=0;whiteSpace=wrap;html=1;" parent="1" vertex="1">
          <mxGeometry x="-510" y="150" width="110" height="35" as="geometry" />
        </mxCell>
        <mxCell id="jH9_K3VRiRtCquy0PlLt-86" style="edgeStyle=orthogonalEdgeStyle;rounded=0;orthogonalLoop=1;jettySize=auto;html=1;exitX=1;exitY=0.5;exitDx=0;exitDy=0;entryX=0;entryY=0.5;entryDx=0;entryDy=0;" parent="1" source="jH9_K3VRiRtCquy0PlLt-81" target="jH9_K3VRiRtCquy0PlLt-85" edge="1">
          <mxGeometry relative="1" as="geometry" />
        </mxCell>
        <mxCell id="jH9_K3VRiRtCquy0PlLt-87" value="问题文本" style="edgeLabel;html=1;align=center;verticalAlign=middle;resizable=0;points=[];" parent="jH9_K3VRiRtCquy0PlLt-86" vertex="1" connectable="0">
          <mxGeometry x="-0.1565" y="-1" relative="1" as="geometry">
            <mxPoint as="offset" />
          </mxGeometry>
        </mxCell>
        <mxCell id="jH9_K3VRiRtCquy0PlLt-81" value="用户" style="rounded=0;whiteSpace=wrap;html=1;" parent="1" vertex="1">
          <mxGeometry x="-80" y="830" width="80" height="30" as="geometry" />
        </mxCell>
        <mxCell id="jH9_K3VRiRtCquy0PlLt-85" value="自然语言提问" style="rounded=1;whiteSpace=wrap;html=1;" parent="1" vertex="1">
          <mxGeometry x="70" y="830" width="80" height="30" as="geometry" />
        </mxCell>
        <mxCell id="jH9_K3VRiRtCquy0PlLt-89" value="领域知识导向的装备知识图谱构建过程" style="text;html=1;align=center;verticalAlign=middle;whiteSpace=wrap;rounded=0;" parent="1" vertex="1">
          <mxGeometry x="167" y="585" width="210" height="30" as="geometry" />
        </mxCell>
        <mxCell id="jH9_K3VRiRtCquy0PlLt-90" value="基于文档文本的混合语义检索过程" style="text;html=1;align=center;verticalAlign=middle;whiteSpace=wrap;rounded=0;" parent="1" vertex="1">
          <mxGeometry x="170" y="1060" width="210" height="30" as="geometry" />
        </mxCell>
        <mxCell id="jH9_K3VRiRtCquy0PlLt-91" value="面向知识图谱的问题“分解-解答”过程" style="text;html=1;align=center;verticalAlign=middle;whiteSpace=wrap;rounded=0;" parent="1" vertex="1">
          <mxGeometry x="170" y="1120" width="210" height="30" as="geometry" />
        </mxCell>
        <mxCell id="jH9_K3VRiRtCquy0PlLt-92" value="基于大模型的装备知识问答框架" style="text;html=1;align=center;verticalAlign=middle;whiteSpace=wrap;rounded=0;" parent="1" vertex="1">
          <mxGeometry x="170" y="1210" width="210" height="30" as="geometry" />
        </mxCell>
        <mxCell id="jH9_K3VRiRtCquy0PlLt-93" value="&lt;div&gt;&lt;br&gt;&lt;/div&gt;&lt;div&gt;领域&lt;/div&gt;&lt;div&gt;知识库&lt;/div&gt;" style="strokeWidth=2;html=1;shape=mxgraph.flowchart.database;whiteSpace=wrap;fillColor=#f8cecc;strokeColor=#b85450;" parent="1" vertex="1">
          <mxGeometry x="80" y="920" width="60" height="60" as="geometry" />
        </mxCell>
        <mxCell id="jH9_K3VRiRtCquy0PlLt-105" style="edgeStyle=orthogonalEdgeStyle;rounded=0;orthogonalLoop=1;jettySize=auto;html=1;exitX=1;exitY=0.5;exitDx=0;exitDy=0;entryX=0;entryY=0.5;entryDx=0;entryDy=0;" parent="1" source="jH9_K3VRiRtCquy0PlLt-94" target="jH9_K3VRiRtCquy0PlLt-100" edge="1">
          <mxGeometry relative="1" as="geometry">
            <Array as="points">
              <mxPoint x="660" y="912" />
              <mxPoint x="660" y="842" />
            </Array>
          </mxGeometry>
        </mxCell>
        <mxCell id="jH9_K3VRiRtCquy0PlLt-120" style="edgeStyle=orthogonalEdgeStyle;rounded=0;orthogonalLoop=1;jettySize=auto;html=1;exitX=1;exitY=0.5;exitDx=0;exitDy=0;entryX=0;entryY=0.5;entryDx=0;entryDy=0;" parent="1" source="jH9_K3VRiRtCquy0PlLt-94" target="jH9_K3VRiRtCquy0PlLt-116" edge="1">
          <mxGeometry relative="1" as="geometry" />
        </mxCell>
        <mxCell id="jH9_K3VRiRtCquy0PlLt-94" value="问题预处理" style="rounded=1;whiteSpace=wrap;html=1;" parent="1" vertex="1">
          <mxGeometry x="540" y="892" width="100" height="40" as="geometry" />
        </mxCell>
        <mxCell id="jH9_K3VRiRtCquy0PlLt-95" value="&lt;span style=&quot;background-color: transparent; color: light-dark(rgb(0, 0, 0), rgb(255, 255, 255));&quot;&gt;停用词检测&lt;/span&gt;" style="rounded=1;whiteSpace=wrap;html=1;" parent="1" vertex="1">
          <mxGeometry x="270" y="700" width="100" height="40" as="geometry" />
        </mxCell>
        <mxCell id="jH9_K3VRiRtCquy0PlLt-97" value="文本清理&lt;div&gt;与笔误校正&lt;/div&gt;" style="rounded=1;whiteSpace=wrap;html=1;" parent="1" vertex="1">
          <mxGeometry x="260" y="920" width="80" height="30" as="geometry" />
        </mxCell>
        <mxCell id="jH9_K3VRiRtCquy0PlLt-98" value="停用词检测" style="rounded=1;whiteSpace=wrap;html=1;" parent="1" vertex="1">
          <mxGeometry x="260" y="980" width="80" height="30" as="geometry" />
        </mxCell>
        <mxCell id="jH9_K3VRiRtCquy0PlLt-99" value="自然语言提问" style="rounded=1;whiteSpace=wrap;html=1;" parent="1" vertex="1">
          <mxGeometry x="70" y="862" width="80" height="30" as="geometry" />
        </mxCell>
        <mxCell id="jH9_K3VRiRtCquy0PlLt-109" style="edgeStyle=orthogonalEdgeStyle;rounded=0;orthogonalLoop=1;jettySize=auto;html=1;exitX=1;exitY=0.5;exitDx=0;exitDy=0;" parent="1" source="jH9_K3VRiRtCquy0PlLt-100" target="jH9_K3VRiRtCquy0PlLt-101" edge="1">
          <mxGeometry relative="1" as="geometry" />
        </mxCell>
        <mxCell id="jH9_K3VRiRtCquy0PlLt-100" value="问题向量化" style="rounded=1;whiteSpace=wrap;html=1;" parent="1" vertex="1">
          <mxGeometry x="727" y="822" width="100" height="40" as="geometry" />
        </mxCell>
        <mxCell id="jH9_K3VRiRtCquy0PlLt-110" style="edgeStyle=orthogonalEdgeStyle;rounded=0;orthogonalLoop=1;jettySize=auto;html=1;exitX=1;exitY=0.5;exitDx=0;exitDy=0;" parent="1" source="jH9_K3VRiRtCquy0PlLt-101" target="jH9_K3VRiRtCquy0PlLt-102" edge="1">
          <mxGeometry relative="1" as="geometry" />
        </mxCell>
        <mxCell id="jH9_K3VRiRtCquy0PlLt-101" value="向量数据库匹配" style="rounded=1;whiteSpace=wrap;html=1;" parent="1" vertex="1">
          <mxGeometry x="860" y="822" width="100" height="40" as="geometry" />
        </mxCell>
        <mxCell id="jH9_K3VRiRtCquy0PlLt-113" style="edgeStyle=orthogonalEdgeStyle;rounded=0;orthogonalLoop=1;jettySize=auto;html=1;exitX=1;exitY=0.5;exitDx=0;exitDy=0;" parent="1" source="jH9_K3VRiRtCquy0PlLt-102" target="jH9_K3VRiRtCquy0PlLt-103" edge="1">
          <mxGeometry relative="1" as="geometry" />
        </mxCell>
        <mxCell id="jH9_K3VRiRtCquy0PlLt-102" value="Top-K片段召回" style="rounded=1;whiteSpace=wrap;html=1;" parent="1" vertex="1">
          <mxGeometry x="990" y="822" width="100" height="40" as="geometry" />
        </mxCell>
        <mxCell id="jH9_K3VRiRtCquy0PlLt-103" value="消歧验证" style="rounded=1;whiteSpace=wrap;html=1;" parent="1" vertex="1">
          <mxGeometry x="1150" y="822" width="100" height="40" as="geometry" />
        </mxCell>
        <mxCell id="jH9_K3VRiRtCquy0PlLt-119" style="edgeStyle=orthogonalEdgeStyle;rounded=0;orthogonalLoop=1;jettySize=auto;html=1;exitX=1;exitY=0.5;exitDx=0;exitDy=0;exitPerimeter=0;entryX=0.5;entryY=1;entryDx=0;entryDy=0;" parent="1" source="jH9_K3VRiRtCquy0PlLt-104" target="jH9_K3VRiRtCquy0PlLt-103" edge="1">
          <mxGeometry relative="1" as="geometry">
            <Array as="points">
              <mxPoint x="1200" y="927" />
            </Array>
          </mxGeometry>
        </mxCell>
        <mxCell id="MLpCybdQ0Om36iigvZgF-6" style="edgeStyle=orthogonalEdgeStyle;rounded=0;orthogonalLoop=1;jettySize=auto;html=1;exitX=0.5;exitY=1;exitDx=0;exitDy=0;exitPerimeter=0;entryX=0.5;entryY=0;entryDx=0;entryDy=0;" parent="1" source="jH9_K3VRiRtCquy0PlLt-104" target="MLpCybdQ0Om36iigvZgF-4" edge="1">
          <mxGeometry relative="1" as="geometry">
            <mxPoint x="970" y="970" as="sourcePoint" />
          </mxGeometry>
        </mxCell>
        <mxCell id="MLpCybdQ0Om36iigvZgF-7" value="同义词表" style="edgeLabel;html=1;align=center;verticalAlign=middle;resizable=0;points=[];" parent="MLpCybdQ0Om36iigvZgF-6" vertex="1" connectable="0">
          <mxGeometry x="-0.3111" y="-1" relative="1" as="geometry">
            <mxPoint as="offset" />
          </mxGeometry>
        </mxCell>
        <mxCell id="jH9_K3VRiRtCquy0PlLt-104" value="&lt;div&gt;&lt;br&gt;&lt;/div&gt;&lt;div&gt;领域&lt;/div&gt;&lt;div&gt;知识库&lt;/div&gt;" style="strokeWidth=2;html=1;shape=mxgraph.flowchart.database;whiteSpace=wrap;fillColor=#f8cecc;strokeColor=#b85450;" parent="1" vertex="1">
          <mxGeometry x="940" y="900" width="60" height="60" as="geometry" />
        </mxCell>
        <mxCell id="jH9_K3VRiRtCquy0PlLt-108" style="edgeStyle=orthogonalEdgeStyle;rounded=0;orthogonalLoop=1;jettySize=auto;html=1;exitX=0;exitY=0;exitDx=50;exitDy=60;exitPerimeter=0;entryX=0.5;entryY=0;entryDx=0;entryDy=0;" parent="1" source="jH9_K3VRiRtCquy0PlLt-107" target="jH9_K3VRiRtCquy0PlLt-100" edge="1">
          <mxGeometry relative="1" as="geometry" />
        </mxCell>
        <mxCell id="jH9_K3VRiRtCquy0PlLt-107" value="向量嵌入模型&lt;div&gt;（如BERT）&lt;/div&gt;" style="shape=cube;whiteSpace=wrap;html=1;boundedLbl=1;backgroundOutline=1;darkOpacity=0.05;darkOpacity2=0.1;size=10;fillColor=#e1d5e7;strokeColor=#9673a6;" parent="1" vertex="1">
          <mxGeometry x="727" y="711" width="90" height="60" as="geometry" />
        </mxCell>
        <mxCell id="jH9_K3VRiRtCquy0PlLt-112" style="edgeStyle=orthogonalEdgeStyle;rounded=0;orthogonalLoop=1;jettySize=auto;html=1;exitX=0.5;exitY=1;exitDx=0;exitDy=0;exitPerimeter=0;entryX=0.5;entryY=0;entryDx=0;entryDy=0;" parent="1" source="jH9_K3VRiRtCquy0PlLt-111" target="jH9_K3VRiRtCquy0PlLt-101" edge="1">
          <mxGeometry relative="1" as="geometry" />
        </mxCell>
        <mxCell id="jH9_K3VRiRtCquy0PlLt-111" value="&lt;div&gt;&lt;br&gt;&lt;/div&gt;&lt;div&gt;向量&lt;/div&gt;&lt;div&gt;数据库&lt;/div&gt;" style="strokeWidth=2;html=1;shape=mxgraph.flowchart.database;whiteSpace=wrap;fillColor=#9AC7BF;strokeColor=#67AB9F;" parent="1" vertex="1">
          <mxGeometry x="880" y="711" width="60" height="60" as="geometry" />
        </mxCell>
        <mxCell id="MLpCybdQ0Om36iigvZgF-5" style="edgeStyle=orthogonalEdgeStyle;rounded=0;orthogonalLoop=1;jettySize=auto;html=1;exitX=1;exitY=0.5;exitDx=0;exitDy=0;entryX=0;entryY=0.5;entryDx=0;entryDy=0;" parent="1" source="jH9_K3VRiRtCquy0PlLt-116" target="MLpCybdQ0Om36iigvZgF-4" edge="1">
          <mxGeometry relative="1" as="geometry" />
        </mxCell>
        <mxCell id="jH9_K3VRiRtCquy0PlLt-116" value="问题分词" style="rounded=1;whiteSpace=wrap;html=1;" parent="1" vertex="1">
          <mxGeometry x="732" y="1000" width="100" height="40" as="geometry" />
        </mxCell>
        <mxCell id="MLpCybdQ0Om36iigvZgF-1" style="edgeStyle=orthogonalEdgeStyle;rounded=0;orthogonalLoop=1;jettySize=auto;html=1;exitX=0;exitY=0;exitDx=50;exitDy=60;exitPerimeter=0;" parent="1" source="jH9_K3VRiRtCquy0PlLt-118" target="jH9_K3VRiRtCquy0PlLt-116" edge="1">
          <mxGeometry relative="1" as="geometry" />
        </mxCell>
        <mxCell id="jH9_K3VRiRtCquy0PlLt-118" value="正则规则引擎" style="shape=cube;whiteSpace=wrap;html=1;boundedLbl=1;backgroundOutline=1;darkOpacity=0.05;darkOpacity2=0.1;size=10;fillColor=#CCFFFF;strokeColor=#00CCCC;" parent="1" vertex="1">
          <mxGeometry x="732" y="892" width="90" height="60" as="geometry" />
        </mxCell>
        <mxCell id="jH9_K3VRiRtCquy0PlLt-124" style="edgeStyle=orthogonalEdgeStyle;rounded=0;orthogonalLoop=1;jettySize=auto;html=1;exitX=0.5;exitY=1;exitDx=0;exitDy=0;exitPerimeter=0;entryX=0.5;entryY=0;entryDx=0;entryDy=0;" parent="1" source="jH9_K3VRiRtCquy0PlLt-123" target="jH9_K3VRiRtCquy0PlLt-103" edge="1">
          <mxGeometry relative="1" as="geometry" />
        </mxCell>
        <mxCell id="jH9_K3VRiRtCquy0PlLt-125" value="分类信息" style="edgeLabel;html=1;align=center;verticalAlign=middle;resizable=0;points=[];" parent="jH9_K3VRiRtCquy0PlLt-124" vertex="1" connectable="0">
          <mxGeometry x="-0.1538" y="-3" relative="1" as="geometry">
            <mxPoint y="1" as="offset" />
          </mxGeometry>
        </mxCell>
        <mxCell id="jH9_K3VRiRtCquy0PlLt-123" value="&lt;div&gt;&lt;br&gt;&lt;/div&gt;&lt;div&gt;装备&lt;/div&gt;文档库" style="strokeWidth=2;html=1;shape=mxgraph.flowchart.database;whiteSpace=wrap;fillColor=#ffe6cc;strokeColor=#d79b00;" parent="1" vertex="1">
          <mxGeometry x="1170" y="711" width="60" height="60" as="geometry" />
        </mxCell>
        <mxCell id="MLpCybdQ0Om36iigvZgF-2" style="edgeStyle=orthogonalEdgeStyle;rounded=0;orthogonalLoop=1;jettySize=auto;html=1;exitX=0;exitY=0.5;exitDx=0;exitDy=0;exitPerimeter=0;entryX=0;entryY=0;entryDx=90;entryDy=35;entryPerimeter=0;dashed=1;" parent="1" source="jH9_K3VRiRtCquy0PlLt-104" target="jH9_K3VRiRtCquy0PlLt-118" edge="1">
          <mxGeometry relative="1" as="geometry" />
        </mxCell>
        <mxCell id="MLpCybdQ0Om36iigvZgF-3" value="术语词典" style="edgeLabel;html=1;align=center;verticalAlign=middle;resizable=0;points=[];" parent="MLpCybdQ0Om36iigvZgF-2" vertex="1" connectable="0">
          <mxGeometry x="-0.0598" y="-1" relative="1" as="geometry">
            <mxPoint as="offset" />
          </mxGeometry>
        </mxCell>
        <mxCell id="MLpCybdQ0Om36iigvZgF-4" value="布尔表达式构建" style="rounded=1;whiteSpace=wrap;html=1;" parent="1" vertex="1">
          <mxGeometry x="920" y="1000" width="100" height="40" as="geometry" />
        </mxCell>
        <mxCell id="MLpCybdQ0Om36iigvZgF-12" style="edgeStyle=orthogonalEdgeStyle;rounded=0;orthogonalLoop=1;jettySize=auto;html=1;exitX=1;exitY=0.5;exitDx=0;exitDy=0;" parent="1" source="MLpCybdQ0Om36iigvZgF-9" target="MLpCybdQ0Om36iigvZgF-11" edge="1">
          <mxGeometry relative="1" as="geometry" />
        </mxCell>
        <mxCell id="MLpCybdQ0Om36iigvZgF-9" value="问题预处理" style="rounded=1;whiteSpace=wrap;html=1;" parent="1" vertex="1">
          <mxGeometry x="1400" y="1160" width="100" height="40" as="geometry" />
        </mxCell>
        <mxCell id="MLpCybdQ0Om36iigvZgF-55" style="edgeStyle=orthogonalEdgeStyle;rounded=0;orthogonalLoop=1;jettySize=auto;html=1;exitX=1;exitY=0.5;exitDx=0;exitDy=0;entryX=0;entryY=0.5;entryDx=0;entryDy=0;" parent="1" source="MLpCybdQ0Om36iigvZgF-11" target="MLpCybdQ0Om36iigvZgF-51" edge="1">
          <mxGeometry relative="1" as="geometry" />
        </mxCell>
        <mxCell id="MLpCybdQ0Om36iigvZgF-63" style="edgeStyle=orthogonalEdgeStyle;rounded=0;orthogonalLoop=1;jettySize=auto;html=1;exitX=0.75;exitY=0;exitDx=0;exitDy=0;entryX=0.5;entryY=0;entryDx=0;entryDy=0;" parent="1" source="MLpCybdQ0Om36iigvZgF-11" target="MLpCybdQ0Om36iigvZgF-61" edge="1">
          <mxGeometry relative="1" as="geometry" />
        </mxCell>
        <mxCell id="MLpCybdQ0Om36iigvZgF-64" value="子问题文本" style="edgeLabel;html=1;align=center;verticalAlign=middle;resizable=0;points=[];" parent="MLpCybdQ0Om36iigvZgF-63" vertex="1" connectable="0">
          <mxGeometry x="0.3538" y="2" relative="1" as="geometry">
            <mxPoint x="-58" y="-8" as="offset" />
          </mxGeometry>
        </mxCell>
        <mxCell id="MLpCybdQ0Om36iigvZgF-11" value="子问题分解" style="rounded=1;whiteSpace=wrap;html=1;" parent="1" vertex="1">
          <mxGeometry x="1535" y="1160" width="100" height="40" as="geometry" />
        </mxCell>
        <mxCell id="MLpCybdQ0Om36iigvZgF-58" style="edgeStyle=orthogonalEdgeStyle;rounded=0;orthogonalLoop=1;jettySize=auto;html=1;exitX=0;exitY=0;exitDx=40;exitDy=0;exitPerimeter=0;entryX=0.5;entryY=1;entryDx=0;entryDy=0;" parent="1" source="MLpCybdQ0Om36iigvZgF-13" target="MLpCybdQ0Om36iigvZgF-51" edge="1">
          <mxGeometry relative="1" as="geometry" />
        </mxCell>
        <mxCell id="MLpCybdQ0Om36iigvZgF-59" style="edgeStyle=orthogonalEdgeStyle;rounded=0;orthogonalLoop=1;jettySize=auto;html=1;exitX=0;exitY=0;exitDx=40;exitDy=0;exitPerimeter=0;entryX=0.75;entryY=1;entryDx=0;entryDy=0;" parent="1" source="MLpCybdQ0Om36iigvZgF-13" target="MLpCybdQ0Om36iigvZgF-11" edge="1">
          <mxGeometry relative="1" as="geometry" />
        </mxCell>
        <mxCell id="MLpCybdQ0Om36iigvZgF-60" style="edgeStyle=orthogonalEdgeStyle;rounded=0;orthogonalLoop=1;jettySize=auto;html=1;exitX=0;exitY=0;exitDx=40;exitDy=0;exitPerimeter=0;" parent="1" source="MLpCybdQ0Om36iigvZgF-13" target="MLpCybdQ0Om36iigvZgF-54" edge="1">
          <mxGeometry relative="1" as="geometry" />
        </mxCell>
        <mxCell id="MLpCybdQ0Om36iigvZgF-66" style="edgeStyle=orthogonalEdgeStyle;rounded=0;orthogonalLoop=1;jettySize=auto;html=1;exitX=0;exitY=0;exitDx=40;exitDy=0;exitPerimeter=0;" parent="1" source="MLpCybdQ0Om36iigvZgF-13" target="MLpCybdQ0Om36iigvZgF-61" edge="1">
          <mxGeometry relative="1" as="geometry" />
        </mxCell>
        <mxCell id="MLpCybdQ0Om36iigvZgF-13" value="大语言模型" style="shape=cube;whiteSpace=wrap;html=1;boundedLbl=1;backgroundOutline=1;darkOpacity=0.05;darkOpacity2=0.1;size=10;fillColor=#FFCE9F;strokeColor=#E09A66;" parent="1" vertex="1">
          <mxGeometry x="1865" y="1240" width="90" height="60" as="geometry" />
        </mxCell>
        <mxCell id="MLpCybdQ0Om36iigvZgF-41" style="rounded=0;orthogonalLoop=1;jettySize=auto;html=1;exitX=1;exitY=0.5;exitDx=0;exitDy=0;entryX=0;entryY=0.5;entryDx=0;entryDy=0;" parent="1" source="MLpCybdQ0Om36iigvZgF-16" target="MLpCybdQ0Om36iigvZgF-38" edge="1">
          <mxGeometry relative="1" as="geometry" />
        </mxCell>
        <mxCell id="MLpCybdQ0Om36iigvZgF-42" value="原产地" style="edgeLabel;html=1;align=center;verticalAlign=middle;resizable=0;points=[];" parent="MLpCybdQ0Om36iigvZgF-41" vertex="1" connectable="0">
          <mxGeometry x="-0.1488" relative="1" as="geometry">
            <mxPoint x="10" y="-9" as="offset" />
          </mxGeometry>
        </mxCell>
        <mxCell id="MLpCybdQ0Om36iigvZgF-16" value="&lt;font face=&quot;Verdana&quot; color=&quot;#67ab9f&quot;&gt;&lt;span style=&quot;font-size: 10px;&quot;&gt;&lt;b&gt;AGM-129&lt;/b&gt;&lt;/span&gt;&lt;/font&gt;&lt;div&gt;&lt;font face=&quot;Verdana&quot; color=&quot;#67ab9f&quot;&gt;&lt;span style=&quot;font-size: 10px;&quot;&gt;&lt;b&gt;ACM&lt;/b&gt;&lt;/span&gt;&lt;/font&gt;&lt;/div&gt;" style="ellipse;whiteSpace=wrap;html=1;aspect=fixed;fillColor=#d5e8d4;strokeColor=#82b366;" parent="1" vertex="1">
          <mxGeometry x="727.42" y="1560" width="60" height="60" as="geometry" />
        </mxCell>
        <mxCell id="MLpCybdQ0Om36iigvZgF-43" value="" style="rounded=0;orthogonalLoop=1;jettySize=auto;html=1;" parent="1" source="MLpCybdQ0Om36iigvZgF-17" target="MLpCybdQ0Om36iigvZgF-38" edge="1">
          <mxGeometry relative="1" as="geometry" />
        </mxCell>
        <mxCell id="MLpCybdQ0Om36iigvZgF-44" value="原产地" style="edgeLabel;html=1;align=center;verticalAlign=middle;resizable=0;points=[];" parent="MLpCybdQ0Om36iigvZgF-43" vertex="1" connectable="0">
          <mxGeometry x="0.304" relative="1" as="geometry">
            <mxPoint x="9" y="-12" as="offset" />
          </mxGeometry>
        </mxCell>
        <mxCell id="MLpCybdQ0Om36iigvZgF-17" value="&lt;font face=&quot;Verdana&quot; style=&quot;color: rgb(103, 171, 159); font-size: 9px;&quot;&gt;&lt;b style=&quot;&quot;&gt;RGM-109E&lt;/b&gt;&lt;/font&gt;&lt;div&gt;&lt;font face=&quot;Verdana&quot; style=&quot;color: rgb(103, 171, 159); font-size: 9px;&quot;&gt;&lt;b style=&quot;&quot;&gt;TLAM-E&lt;/b&gt;&lt;/font&gt;&lt;/div&gt;" style="ellipse;whiteSpace=wrap;html=1;aspect=fixed;fillColor=#d5e8d4;strokeColor=#82b366;" parent="1" vertex="1">
          <mxGeometry x="975.9999999999999" y="1560" width="60" height="60" as="geometry" />
        </mxCell>
        <mxCell id="MLpCybdQ0Om36iigvZgF-23" style="edgeStyle=orthogonalEdgeStyle;rounded=0;orthogonalLoop=1;jettySize=auto;html=1;exitX=0.5;exitY=0;exitDx=0;exitDy=0;entryX=0.5;entryY=1;entryDx=0;entryDy=0;" parent="1" source="MLpCybdQ0Om36iigvZgF-18" target="MLpCybdQ0Om36iigvZgF-16" edge="1">
          <mxGeometry relative="1" as="geometry" />
        </mxCell>
        <mxCell id="MLpCybdQ0Om36iigvZgF-29" value="具有改进型" style="edgeLabel;html=1;align=center;verticalAlign=middle;resizable=0;points=[];" parent="MLpCybdQ0Om36iigvZgF-23" vertex="1" connectable="0">
          <mxGeometry x="-0.187" relative="1" as="geometry">
            <mxPoint as="offset" />
          </mxGeometry>
        </mxCell>
        <mxCell id="MLpCybdQ0Om36iigvZgF-18" value="&lt;font style=&quot;font-size: 9px;&quot; face=&quot;Verdana&quot; color=&quot;#67ab9f&quot;&gt;AGM-86&lt;/font&gt;&lt;div&gt;&lt;font style=&quot;font-size: 9px;&quot; face=&quot;Verdana&quot; color=&quot;#67ab9f&quot;&gt;ALCM&lt;/font&gt;&lt;/div&gt;" style="ellipse;whiteSpace=wrap;html=1;aspect=fixed;fillColor=#d5e8d4;strokeColor=#82b366;" parent="1" vertex="1">
          <mxGeometry x="732.42" y="1665" width="50" height="50" as="geometry" />
        </mxCell>
        <mxCell id="MLpCybdQ0Om36iigvZgF-28" style="edgeStyle=orthogonalEdgeStyle;rounded=0;orthogonalLoop=1;jettySize=auto;html=1;exitX=0.5;exitY=0;exitDx=0;exitDy=0;entryX=0.5;entryY=1;entryDx=0;entryDy=0;" parent="1" source="MLpCybdQ0Om36iigvZgF-19" target="MLpCybdQ0Om36iigvZgF-17" edge="1">
          <mxGeometry relative="1" as="geometry" />
        </mxCell>
        <mxCell id="MLpCybdQ0Om36iigvZgF-30" value="具有改进型" style="edgeLabel;html=1;align=center;verticalAlign=middle;resizable=0;points=[];" parent="MLpCybdQ0Om36iigvZgF-28" vertex="1" connectable="0">
          <mxGeometry x="-0.049" relative="1" as="geometry">
            <mxPoint as="offset" />
          </mxGeometry>
        </mxCell>
        <mxCell id="MLpCybdQ0Om36iigvZgF-48" style="rounded=0;orthogonalLoop=1;jettySize=auto;html=1;exitX=0;exitY=0;exitDx=0;exitDy=0;entryX=1;entryY=1;entryDx=0;entryDy=0;strokeColor=#D4D4D4;" parent="1" source="MLpCybdQ0Om36iigvZgF-19" target="MLpCybdQ0Om36iigvZgF-38" edge="1">
          <mxGeometry relative="1" as="geometry" />
        </mxCell>
        <mxCell id="MLpCybdQ0Om36iigvZgF-19" value="&lt;font style=&quot;font-size: 8px;&quot; face=&quot;Verdana&quot; color=&quot;#67ab9f&quot;&gt;RGM/UGM&lt;/font&gt;&lt;div&gt;&lt;font style=&quot;font-size: 8px;&quot; face=&quot;Verdana&quot; color=&quot;#67ab9f&quot;&gt;-109&lt;/font&gt;&lt;/div&gt;" style="ellipse;whiteSpace=wrap;html=1;aspect=fixed;fillColor=#d5e8d4;strokeColor=#82b366;" parent="1" vertex="1">
          <mxGeometry x="980.9999999999999" y="1665" width="50" height="50" as="geometry" />
        </mxCell>
        <mxCell id="MLpCybdQ0Om36iigvZgF-31" style="rounded=0;orthogonalLoop=1;jettySize=auto;html=1;exitX=0;exitY=0.5;exitDx=0;exitDy=0;entryX=1;entryY=0.5;entryDx=0;entryDy=0;" parent="1" source="MLpCybdQ0Om36iigvZgF-20" target="MLpCybdQ0Om36iigvZgF-18" edge="1">
          <mxGeometry relative="1" as="geometry" />
        </mxCell>
        <mxCell id="MLpCybdQ0Om36iigvZgF-33" value="具有改进型" style="edgeLabel;html=1;align=center;verticalAlign=middle;resizable=0;points=[];" parent="MLpCybdQ0Om36iigvZgF-31" vertex="1" connectable="0">
          <mxGeometry x="-0.0263" y="-2" relative="1" as="geometry">
            <mxPoint x="-1" y="-8" as="offset" />
          </mxGeometry>
        </mxCell>
        <mxCell id="MLpCybdQ0Om36iigvZgF-32" style="rounded=0;orthogonalLoop=1;jettySize=auto;html=1;exitX=1;exitY=0.5;exitDx=0;exitDy=0;entryX=0;entryY=0.5;entryDx=0;entryDy=0;" parent="1" source="MLpCybdQ0Om36iigvZgF-20" target="MLpCybdQ0Om36iigvZgF-19" edge="1">
          <mxGeometry relative="1" as="geometry">
            <mxPoint x="926.8232034355964" y="1758.7867965644036" as="sourcePoint" />
            <mxPoint x="957.61" y="1690" as="targetPoint" />
          </mxGeometry>
        </mxCell>
        <mxCell id="MLpCybdQ0Om36iigvZgF-34" value="具有改进型" style="edgeLabel;html=1;align=center;verticalAlign=middle;resizable=0;points=[];" parent="MLpCybdQ0Om36iigvZgF-32" vertex="1" connectable="0">
          <mxGeometry x="-0.1138" relative="1" as="geometry">
            <mxPoint x="4" y="-10" as="offset" />
          </mxGeometry>
        </mxCell>
        <mxCell id="MLpCybdQ0Om36iigvZgF-47" style="edgeStyle=orthogonalEdgeStyle;rounded=0;orthogonalLoop=1;jettySize=auto;html=1;exitX=0.5;exitY=0;exitDx=0;exitDy=0;entryX=0.5;entryY=1;entryDx=0;entryDy=0;strokeColor=#D4D4D4;" parent="1" source="MLpCybdQ0Om36iigvZgF-20" target="MLpCybdQ0Om36iigvZgF-38" edge="1">
          <mxGeometry relative="1" as="geometry" />
        </mxCell>
        <mxCell id="MLpCybdQ0Om36iigvZgF-20" value="&lt;span style=&quot;font-weight: normal;&quot;&gt;&lt;font style=&quot;font-size: 8px;&quot;&gt;&lt;font style=&quot;color: rgb(103, 171, 159);&quot; face=&quot;Verdana&quot;&gt;BGM&lt;/font&gt;&lt;span style=&quot;background-color: transparent; color: light-dark(rgb(103, 171, 159), rgb(58, 117, 107)); font-family: Verdana;&quot;&gt;-109&lt;/span&gt;&lt;/font&gt;&lt;/span&gt;&lt;div&gt;&lt;span style=&quot;font-weight: normal;&quot;&gt;&lt;span style=&quot;background-color: transparent; color: light-dark(rgb(103, 171, 159), rgb(58, 117, 107)); font-family: Verdana;&quot;&gt;&lt;font style=&quot;font-size: 8px;&quot;&gt;Tomahawk&lt;/font&gt;&lt;/span&gt;&lt;/span&gt;&lt;/div&gt;" style="ellipse;whiteSpace=wrap;html=1;aspect=fixed;fillColor=#d5e8d4;strokeColor=#82b366;fontStyle=1" parent="1" vertex="1">
          <mxGeometry x="852.61" y="1695" width="50" height="50" as="geometry" />
        </mxCell>
        <mxCell id="MLpCybdQ0Om36iigvZgF-26" style="rounded=0;orthogonalLoop=1;jettySize=auto;html=1;entryX=0;entryY=0;entryDx=0;entryDy=0;" parent="1" target="MLpCybdQ0Om36iigvZgF-17" edge="1">
          <mxGeometry relative="1" as="geometry">
            <mxPoint x="908.61" y="1530" as="sourcePoint" />
          </mxGeometry>
        </mxCell>
        <mxCell id="MLpCybdQ0Om36iigvZgF-27" value="装备在..." style="edgeLabel;html=1;align=center;verticalAlign=middle;resizable=0;points=[];" parent="MLpCybdQ0Om36iigvZgF-26" vertex="1" connectable="0">
          <mxGeometry x="-0.169" y="-1" relative="1" as="geometry">
            <mxPoint as="offset" />
          </mxGeometry>
        </mxCell>
        <mxCell id="MLpCybdQ0Om36iigvZgF-21" value="&lt;font style=&quot;font-size: 9px;&quot; face=&quot;Verdana&quot; color=&quot;#0000cc&quot;&gt;AN/DPW-23&lt;/font&gt;&lt;div&gt;&lt;font style=&quot;font-size: 9px;&quot; face=&quot;Verdana&quot; color=&quot;#0000cc&quot;&gt;目标制导系统&lt;/font&gt;&lt;/div&gt;" style="ellipse;whiteSpace=wrap;html=1;aspect=fixed;fillColor=#dae8fc;strokeColor=#6c8ebf;" parent="1" vertex="1">
          <mxGeometry x="847.61" y="1500" width="60" height="60" as="geometry" />
        </mxCell>
        <mxCell id="MLpCybdQ0Om36iigvZgF-24" style="rounded=0;orthogonalLoop=1;jettySize=auto;html=1;exitX=1;exitY=0;exitDx=0;exitDy=0;entryX=0;entryY=0.5;entryDx=0;entryDy=0;endArrow=none;startFill=1;startArrow=classic;" parent="1" source="MLpCybdQ0Om36iigvZgF-16" target="MLpCybdQ0Om36iigvZgF-21" edge="1">
          <mxGeometry relative="1" as="geometry" />
        </mxCell>
        <mxCell id="MLpCybdQ0Om36iigvZgF-25" value="装备在..." style="edgeLabel;html=1;align=center;verticalAlign=middle;resizable=0;points=[];" parent="MLpCybdQ0Om36iigvZgF-24" vertex="1" connectable="0">
          <mxGeometry x="0.0076" relative="1" as="geometry">
            <mxPoint y="-10" as="offset" />
          </mxGeometry>
        </mxCell>
        <mxCell id="MLpCybdQ0Om36iigvZgF-35" value="&lt;div&gt;&lt;span style=&quot;font-size: 10px; background-color: transparent; color: light-dark(rgb(0, 0, 0), rgb(255, 255, 255));&quot;&gt;型号代号：RGM-109E&lt;/span&gt;&lt;/div&gt;&lt;div&gt;&lt;span style=&quot;font-size: 10px; background-color: transparent; color: light-dark(rgb(0, 0, 0), rgb(255, 255, 255));&quot;&gt;研发年份：1990年&lt;/span&gt;&lt;/div&gt;&lt;div&gt;&lt;font style=&quot;font-size: 10px;&quot;&gt;装备类型：舰载巡航导弹&lt;/font&gt;&lt;/div&gt;&lt;div&gt;&lt;font style=&quot;font-size: 10px;&quot;&gt;射程：1600公里&lt;/font&gt;&lt;/div&gt;&lt;div&gt;&lt;font style=&quot;font-size: 10px;&quot;&gt;...&lt;/font&gt;&lt;/div&gt;" style="shape=callout;whiteSpace=wrap;html=1;perimeter=calloutPerimeter;size=30;position=0.17;base=20;position2=0.08;" parent="1" vertex="1">
          <mxGeometry x="1028" y="1480" width="120" height="110" as="geometry" />
        </mxCell>
        <mxCell id="MLpCybdQ0Om36iigvZgF-36" value="&lt;div&gt;&lt;span style=&quot;font-size: 10px;&quot;&gt;型号代号：AGM-129&lt;/span&gt;&lt;/div&gt;&lt;div&gt;&lt;span style=&quot;font-size: 10px; background-color: transparent; color: light-dark(rgb(0, 0, 0), rgb(255, 255, 255));&quot;&gt;设计年份：1970年&lt;/span&gt;&lt;/div&gt;&lt;div&gt;&lt;font style=&quot;font-size: 10px;&quot;&gt;装备类型：空射巡航导弹&lt;/font&gt;&lt;/div&gt;&lt;div&gt;&lt;font style=&quot;font-size: 10px;&quot;&gt;射程：3700公里&lt;/font&gt;&lt;/div&gt;&lt;div&gt;&lt;font style=&quot;font-size: 10px;&quot;&gt;...&lt;/font&gt;&lt;/div&gt;" style="shape=callout;whiteSpace=wrap;html=1;perimeter=calloutPerimeter;size=30;position=0.67;base=10;position2=0.92;" parent="1" vertex="1">
          <mxGeometry x="616.42" y="1480" width="120" height="110" as="geometry" />
        </mxCell>
        <mxCell id="MLpCybdQ0Om36iigvZgF-38" value="&lt;font face=&quot;Verdana&quot; style=&quot;color: rgb(224, 154, 102); font-weight: normal; font-size: 13px;&quot;&gt;美国&lt;/font&gt;" style="ellipse;whiteSpace=wrap;html=1;aspect=fixed;fillColor=#fff2cc;strokeColor=#d6b656;fontStyle=1;" parent="1" vertex="1">
          <mxGeometry x="852.61" y="1590" width="50" height="50" as="geometry" />
        </mxCell>
        <mxCell id="MLpCybdQ0Om36iigvZgF-49" style="rounded=0;orthogonalLoop=1;jettySize=auto;html=1;exitX=1;exitY=0;exitDx=0;exitDy=0;entryX=0.058;entryY=0.787;entryDx=0;entryDy=0;entryPerimeter=0;strokeColor=#D4D4D4;" parent="1" source="MLpCybdQ0Om36iigvZgF-18" target="MLpCybdQ0Om36iigvZgF-38" edge="1">
          <mxGeometry relative="1" as="geometry" />
        </mxCell>
        <mxCell id="MLpCybdQ0Om36iigvZgF-56" style="edgeStyle=orthogonalEdgeStyle;rounded=0;orthogonalLoop=1;jettySize=auto;html=1;exitX=1;exitY=0.5;exitDx=0;exitDy=0;entryX=0;entryY=0.5;entryDx=0;entryDy=0;" parent="1" source="MLpCybdQ0Om36iigvZgF-51" target="MLpCybdQ0Om36iigvZgF-52" edge="1">
          <mxGeometry relative="1" as="geometry" />
        </mxCell>
        <mxCell id="MLpCybdQ0Om36iigvZgF-51" value="Cypher转换" style="rounded=1;whiteSpace=wrap;html=1;" parent="1" vertex="1">
          <mxGeometry x="1670" y="1160" width="100" height="40" as="geometry" />
        </mxCell>
        <mxCell id="MLpCybdQ0Om36iigvZgF-57" style="edgeStyle=orthogonalEdgeStyle;rounded=0;orthogonalLoop=1;jettySize=auto;html=1;exitX=1;exitY=0.5;exitDx=0;exitDy=0;entryX=0;entryY=0.5;entryDx=0;entryDy=0;" parent="1" source="MLpCybdQ0Om36iigvZgF-52" target="MLpCybdQ0Om36iigvZgF-54" edge="1">
          <mxGeometry relative="1" as="geometry" />
        </mxCell>
        <mxCell id="MLpCybdQ0Om36iigvZgF-52" value="图数据库检索" style="rounded=1;whiteSpace=wrap;html=1;" parent="1" vertex="1">
          <mxGeometry x="1805" y="1160" width="100" height="40" as="geometry" />
        </mxCell>
        <mxCell id="MLpCybdQ0Om36iigvZgF-62" style="edgeStyle=orthogonalEdgeStyle;rounded=0;orthogonalLoop=1;jettySize=auto;html=1;exitX=1;exitY=0.5;exitDx=0;exitDy=0;" parent="1" source="MLpCybdQ0Om36iigvZgF-54" target="MLpCybdQ0Om36iigvZgF-61" edge="1">
          <mxGeometry relative="1" as="geometry" />
        </mxCell>
        <mxCell id="MLpCybdQ0Om36iigvZgF-65" value="有效查询结果" style="edgeLabel;html=1;align=center;verticalAlign=middle;resizable=0;points=[];" parent="MLpCybdQ0Om36iigvZgF-62" vertex="1" connectable="0">
          <mxGeometry x="-0.1891" y="1" relative="1" as="geometry">
            <mxPoint x="6" y="-9" as="offset" />
          </mxGeometry>
        </mxCell>
        <mxCell id="MLpCybdQ0Om36iigvZgF-54" value="有效性验证" style="rounded=1;whiteSpace=wrap;html=1;" parent="1" vertex="1">
          <mxGeometry x="1935" y="1160" width="100" height="40" as="geometry" />
        </mxCell>
        <mxCell id="MLpCybdQ0Om36iigvZgF-61" value="结果整合" style="rounded=1;whiteSpace=wrap;html=1;" parent="1" vertex="1">
          <mxGeometry x="2145" y="1160" width="100" height="40" as="geometry" />
        </mxCell>
        <mxCell id="MLpCybdQ0Om36iigvZgF-69" value="大语言模型" style="shape=cube;whiteSpace=wrap;html=1;boundedLbl=1;backgroundOutline=1;darkOpacity=0.05;darkOpacity2=0.1;size=10;fillColor=#FFCE9F;strokeColor=#E09A66;" parent="1" vertex="1">
          <mxGeometry x="-90" y="405" width="90" height="60" as="geometry" />
        </mxCell>
        <mxCell id="MLpCybdQ0Om36iigvZgF-71" value="" style="verticalLabelPosition=bottom;verticalAlign=top;html=1;shape=mxgraph.basic.cone;fillColor=#bac8d3;strokeColor=#23445d;" parent="1" vertex="1">
          <mxGeometry x="463" y="242" width="70" height="60" as="geometry" />
        </mxCell>
        <mxCell id="MLpCybdQ0Om36iigvZgF-72" value="&lt;span style=&quot;color: rgb(0, 0, 0); font-family: Helvetica; font-style: normal; font-variant-ligatures: normal; font-variant-caps: normal; font-weight: 400; letter-spacing: normal; orphans: 2; text-align: center; text-indent: 0px; text-transform: none; widows: 2; word-spacing: 0px; -webkit-text-stroke-width: 0px; white-space: nowrap; text-decoration-thickness: initial; text-decoration-style: initial; text-decoration-color: initial; float: none; display: inline !important;&quot;&gt;数据模型&lt;/span&gt;" style="text;html=1;align=center;verticalAlign=middle;whiteSpace=wrap;rounded=0;fillColor=#bac8d3;strokeColor=none;fontSize=11;" parent="1" vertex="1">
          <mxGeometry x="476.75" y="279" width="41.5" height="10" as="geometry" />
        </mxCell>
        <mxCell id="MLpCybdQ0Om36iigvZgF-74" value="" style="verticalLabelPosition=bottom;verticalAlign=top;html=1;shape=mxgraph.basic.cone;fillColor=#bac8d3;strokeColor=#23445d;" parent="1" vertex="1">
          <mxGeometry x="1530.6100000000001" y="1232" width="70" height="60" as="geometry" />
        </mxCell>
        <mxCell id="MLpCybdQ0Om36iigvZgF-75" value="&lt;span style=&quot;color: rgb(0, 0, 0); font-family: Helvetica; font-style: normal; font-variant-ligatures: normal; font-variant-caps: normal; font-weight: 400; letter-spacing: normal; orphans: 2; text-align: center; text-indent: 0px; text-transform: none; widows: 2; word-spacing: 0px; -webkit-text-stroke-width: 0px; white-space: nowrap; text-decoration-thickness: initial; text-decoration-style: initial; text-decoration-color: initial; float: none; display: inline !important;&quot;&gt;数据模型&lt;/span&gt;" style="text;html=1;align=center;verticalAlign=middle;whiteSpace=wrap;rounded=0;fillColor=#bac8d3;strokeColor=none;fontSize=11;" parent="1" vertex="1">
          <mxGeometry x="1544.3600000000001" y="1269" width="41.5" height="10" as="geometry" />
        </mxCell>
        <mxCell id="MLpCybdQ0Om36iigvZgF-76" style="edgeStyle=orthogonalEdgeStyle;rounded=0;orthogonalLoop=1;jettySize=auto;html=1;exitX=0.5;exitY=0;exitDx=0;exitDy=0;exitPerimeter=0;entryX=0.306;entryY=1.024;entryDx=0;entryDy=0;entryPerimeter=0;" parent="1" source="MLpCybdQ0Om36iigvZgF-74" target="MLpCybdQ0Om36iigvZgF-11" edge="1">
          <mxGeometry relative="1" as="geometry" />
        </mxCell>
        <mxCell id="mg4vhRIRyMYAvtDClbSn-1" value="实体识别" style="rounded=1;whiteSpace=wrap;html=1;" parent="1" vertex="1">
          <mxGeometry x="1527.42" y="1060" width="100" height="40" as="geometry" />
        </mxCell>
        <mxCell id="V9nqlXCoNzKhv72pdfjE-1" value="" style="shape=actor;whiteSpace=wrap;html=1;" parent="1" vertex="1">
          <mxGeometry x="2510" y="1390" width="23" height="30" as="geometry" />
        </mxCell>
        <mxCell id="V9nqlXCoNzKhv72pdfjE-87" style="edgeStyle=orthogonalEdgeStyle;rounded=0;orthogonalLoop=1;jettySize=auto;html=1;exitX=1;exitY=0.5;exitDx=0;exitDy=0;entryX=0;entryY=0.5;entryDx=0;entryDy=0;" parent="1" source="V9nqlXCoNzKhv72pdfjE-2" target="V9nqlXCoNzKhv72pdfjE-78" edge="1">
          <mxGeometry relative="1" as="geometry" />
        </mxCell>
        <mxCell id="V9nqlXCoNzKhv72pdfjE-2" value="&lt;font data-font-src=&quot;https://fonts.googleapis.com/css?family=LXGW+WenKai+Mono+TC&quot; face=&quot;LXGW WenKai Mono TC&quot;&gt;“对比AGM-129和RGM-109E，这两款导弹有什么关系？”&lt;/font&gt;" style="text;html=1;align=center;verticalAlign=middle;whiteSpace=wrap;rounded=0;fillColor=#f5f5f5;fontColor=#333333;strokeColor=none;" parent="1" vertex="1">
          <mxGeometry x="2535" y="1390" width="180" height="30" as="geometry" />
        </mxCell>
        <mxCell id="V9nqlXCoNzKhv72pdfjE-3" value="&lt;span&gt;用户提问&lt;/span&gt;" style="text;html=1;align=center;verticalAlign=middle;whiteSpace=wrap;rounded=0;fontStyle=1" parent="1" vertex="1">
          <mxGeometry x="2595" y="1420" width="60" height="30" as="geometry" />
        </mxCell>
        <mxCell id="V9nqlXCoNzKhv72pdfjE-4" value="" style="endArrow=classic;html=1;rounded=0;" parent="1" edge="1">
          <mxGeometry width="50" height="50" relative="1" as="geometry">
            <mxPoint x="1675" y="1548.67" as="sourcePoint" />
            <mxPoint x="1745" y="1549.15" as="targetPoint" />
          </mxGeometry>
        </mxCell>
        <mxCell id="V9nqlXCoNzKhv72pdfjE-5" value="实体&lt;span style=&quot;background-color: transparent; color: light-dark(rgb(0, 0, 0), rgb(255, 255, 255));&quot;&gt;识别&lt;/span&gt;" style="rounded=1;whiteSpace=wrap;html=1;fontStyle=1" parent="1" vertex="1">
          <mxGeometry x="1745" y="1526.5" width="70" height="45" as="geometry" />
        </mxCell>
        <mxCell id="V9nqlXCoNzKhv72pdfjE-37" value="&lt;font data-font-src=&quot;https://fonts.googleapis.com/css?family=LXGW+WenKai+Mono+TC&quot; face=&quot;LXGW WenKai Mono TC&quot;&gt;标准名称&lt;/font&gt;" style="rounded=0;whiteSpace=wrap;html=1;fillColor=#f5f5f5;fontColor=#333333;strokeColor=#666666;" parent="1" vertex="1">
          <mxGeometry x="2081" y="1499" width="110" height="20" as="geometry" />
        </mxCell>
        <mxCell id="V9nqlXCoNzKhv72pdfjE-38" value="&lt;font data-font-src=&quot;https://fonts.googleapis.com/css?family=LXGW+WenKai+Mono+TC&quot; face=&quot;LXGW WenKai Mono TC&quot;&gt;同义词&lt;/font&gt;" style="rounded=0;whiteSpace=wrap;html=1;fillColor=#f5f5f5;fontColor=#333333;strokeColor=#666666;" parent="1" vertex="1">
          <mxGeometry x="2191" y="1499" width="210" height="20" as="geometry" />
        </mxCell>
        <mxCell id="V9nqlXCoNzKhv72pdfjE-39" value="&lt;span style=&quot;color: rgb(51, 51, 51); font-family: &amp;quot;LXGW WenKai Mono TC&amp;quot;;&quot;&gt;&#39;AGM-129 ACM&#39;&lt;/span&gt;" style="rounded=0;whiteSpace=wrap;html=1;fillColor=#f5f5f5;fontColor=#333333;strokeColor=#666666;" parent="1" vertex="1">
          <mxGeometry x="2081" y="1519" width="110" height="20" as="geometry" />
        </mxCell>
        <mxCell id="V9nqlXCoNzKhv72pdfjE-40" value="&lt;span style=&quot;color: rgb(51, 51, 51); font-family: &amp;quot;LXGW WenKai Mono TC&amp;quot;;&quot;&gt;[&#39;AGM-129&#39;,&#39;AGM129&#39;,&#39;AGM-129A&#39;]&lt;/span&gt;" style="rounded=0;whiteSpace=wrap;html=1;fillColor=#f5f5f5;fontColor=#333333;strokeColor=#666666;" parent="1" vertex="1">
          <mxGeometry x="2191" y="1519" width="210" height="20" as="geometry" />
        </mxCell>
        <mxCell id="V9nqlXCoNzKhv72pdfjE-66" style="edgeStyle=orthogonalEdgeStyle;rounded=0;orthogonalLoop=1;jettySize=auto;html=1;exitX=0;exitY=0.5;exitDx=0;exitDy=0;" parent="1" source="V9nqlXCoNzKhv72pdfjE-41" target="V9nqlXCoNzKhv72pdfjE-52" edge="1">
          <mxGeometry relative="1" as="geometry" />
        </mxCell>
        <mxCell id="V9nqlXCoNzKhv72pdfjE-41" value="&lt;span style=&quot;color: rgb(51, 51, 51); font-family: &amp;quot;LXGW WenKai Mono TC&amp;quot;;&quot;&gt;&#39;RGM-109E TLAM-E&#39;&lt;/span&gt;" style="rounded=0;whiteSpace=wrap;html=1;fillColor=#f5f5f5;fontColor=#333333;strokeColor=#666666;" parent="1" vertex="1">
          <mxGeometry x="2081" y="1539" width="110" height="20" as="geometry" />
        </mxCell>
        <mxCell id="V9nqlXCoNzKhv72pdfjE-42" value="&lt;span style=&quot;color: rgb(51, 51, 51); font-family: &amp;quot;LXGW WenKai Mono TC&amp;quot;;&quot;&gt;[&#39;RGM109E&#39;,&#39;RGM-109E&#39;,&#39;TLAM-E&#39;]&lt;/span&gt;" style="rounded=0;whiteSpace=wrap;html=1;fillColor=#f5f5f5;fontColor=#333333;strokeColor=#666666;" parent="1" vertex="1">
          <mxGeometry x="2191" y="1539" width="210" height="20" as="geometry" />
        </mxCell>
        <mxCell id="V9nqlXCoNzKhv72pdfjE-43" value="&lt;span style=&quot;color: rgb(51, 51, 51); font-family: &amp;quot;LXGW WenKai Mono TC&amp;quot;;&quot;&gt;&#39;导弹&#39;&lt;/span&gt;" style="rounded=0;whiteSpace=wrap;html=1;fillColor=#f5f5f5;fontColor=#333333;strokeColor=#666666;" parent="1" vertex="1">
          <mxGeometry x="2081" y="1559" width="110" height="20" as="geometry" />
        </mxCell>
        <mxCell id="V9nqlXCoNzKhv72pdfjE-44" value="&lt;span style=&quot;color: rgb(51, 51, 51); font-family: &amp;quot;LXGW WenKai Mono TC&amp;quot;;&quot;&gt;[&#39;飞弹&#39;]&lt;/span&gt;" style="rounded=0;whiteSpace=wrap;html=1;fillColor=#f5f5f5;fontColor=#333333;strokeColor=#666666;" parent="1" vertex="1">
          <mxGeometry x="2191" y="1559" width="210" height="20" as="geometry" />
        </mxCell>
        <mxCell id="V9nqlXCoNzKhv72pdfjE-45" value="&lt;font face=&quot;LXGW WenKai Mono TC&quot;&gt;...&lt;/font&gt;" style="rounded=0;whiteSpace=wrap;html=1;fillColor=#f5f5f5;fontColor=#333333;strokeColor=#666666;" parent="1" vertex="1">
          <mxGeometry x="2081" y="1579" width="110" height="20" as="geometry" />
        </mxCell>
        <mxCell id="V9nqlXCoNzKhv72pdfjE-46" value="&lt;font face=&quot;LXGW WenKai Mono TC&quot;&gt;......&lt;/font&gt;" style="rounded=0;whiteSpace=wrap;html=1;fillColor=#f5f5f5;fontColor=#333333;strokeColor=#666666;" parent="1" vertex="1">
          <mxGeometry x="2191" y="1579" width="210" height="20" as="geometry" />
        </mxCell>
        <mxCell id="V9nqlXCoNzKhv72pdfjE-47" value="同义词表" style="text;html=1;align=center;verticalAlign=middle;whiteSpace=wrap;rounded=0;fontStyle=1" parent="1" vertex="1">
          <mxGeometry x="2221" y="1599" width="60" height="30" as="geometry" />
        </mxCell>
        <mxCell id="V9nqlXCoNzKhv72pdfjE-50" style="edgeStyle=orthogonalEdgeStyle;rounded=0;orthogonalLoop=1;jettySize=auto;html=1;exitX=0;exitY=0;exitDx=32.5;exitDy=0;exitPerimeter=0;entryX=0.5;entryY=1;entryDx=0;entryDy=0;" parent="1" source="V9nqlXCoNzKhv72pdfjE-49" target="V9nqlXCoNzKhv72pdfjE-5" edge="1">
          <mxGeometry relative="1" as="geometry" />
        </mxCell>
        <mxCell id="V9nqlXCoNzKhv72pdfjE-51" value="词法分析能力" style="edgeLabel;html=1;align=center;verticalAlign=middle;resizable=0;points=[];" parent="V9nqlXCoNzKhv72pdfjE-50" vertex="1" connectable="0">
          <mxGeometry x="-0.033" y="1" relative="1" as="geometry">
            <mxPoint x="-36" y="2" as="offset" />
          </mxGeometry>
        </mxCell>
        <mxCell id="V9nqlXCoNzKhv72pdfjE-49" value="大语言模型" style="shape=cube;whiteSpace=wrap;html=1;boundedLbl=1;backgroundOutline=1;darkOpacity=0.05;darkOpacity2=0.1;size=10;fillColor=#FFCE9F;strokeColor=#E09A66;" parent="1" vertex="1">
          <mxGeometry x="1654" y="1610" width="75" height="46" as="geometry" />
        </mxCell>
        <mxCell id="V9nqlXCoNzKhv72pdfjE-67" style="edgeStyle=orthogonalEdgeStyle;rounded=0;orthogonalLoop=1;jettySize=auto;html=1;exitX=0;exitY=0.5;exitDx=0;exitDy=0;entryX=1;entryY=0.5;entryDx=0;entryDy=0;" parent="1" source="V9nqlXCoNzKhv72pdfjE-52" target="V9nqlXCoNzKhv72pdfjE-64" edge="1">
          <mxGeometry relative="1" as="geometry" />
        </mxCell>
        <mxCell id="V9nqlXCoNzKhv72pdfjE-52" value="实体对齐" style="rounded=1;whiteSpace=wrap;html=1;fontStyle=1" parent="1" vertex="1">
          <mxGeometry x="1998" y="1624" width="70" height="45" as="geometry" />
        </mxCell>
        <mxCell id="V9nqlXCoNzKhv72pdfjE-55" value="&lt;font data-font-src=&quot;https://fonts.googleapis.com/css?family=LXGW+WenKai+Mono+TC&quot; face=&quot;LXGW WenKai Mono TC&quot;&gt;E&lt;sub&gt;0&amp;nbsp;&lt;/sub&gt;=&amp;nbsp;&lt;/font&gt;&lt;span style=&quot;font-family: &amp;quot;LXGW WenKai Mono TC&amp;quot;; background-color: transparent; color: light-dark(rgb(51, 51, 51), rgb(193, 193, 193));&quot;&gt;{&#39;AGM-129&#39;,&lt;/span&gt;&lt;div&gt;&lt;font data-font-src=&quot;https://fonts.googleapis.com/css?family=LXGW+WenKai+Mono+TC&quot; face=&quot;LXGW WenKai Mono TC&quot;&gt;&#39;RGM-109E&#39;,&#39;导弹&#39;,&lt;/font&gt;&lt;/div&gt;&lt;div&gt;&lt;font data-font-src=&quot;https://fonts.googleapis.com/css?family=LXGW+WenKai+Mono+TC&quot; face=&quot;LXGW WenKai Mono TC&quot;&gt;&#39;关系&#39;,....}&lt;/font&gt;&lt;/div&gt;" style="text;html=1;align=center;verticalAlign=middle;whiteSpace=wrap;rounded=0;fillColor=#f5f5f5;fontColor=#333333;strokeColor=none;" parent="1" vertex="1">
          <mxGeometry x="1850" y="1513" width="140" height="49" as="geometry" />
        </mxCell>
        <mxCell id="V9nqlXCoNzKhv72pdfjE-57" value="识别结果" style="text;html=1;align=center;verticalAlign=middle;whiteSpace=wrap;rounded=0;fontStyle=1" parent="1" vertex="1">
          <mxGeometry x="1890" y="1562" width="60" height="30" as="geometry" />
        </mxCell>
        <mxCell id="V9nqlXCoNzKhv72pdfjE-60" value="" style="endArrow=classic;html=1;rounded=0;" parent="1" edge="1">
          <mxGeometry width="50" height="50" relative="1" as="geometry">
            <mxPoint x="1815" y="1548.5800000000002" as="sourcePoint" />
            <mxPoint x="1850" y="1549" as="targetPoint" />
          </mxGeometry>
        </mxCell>
        <mxCell id="V9nqlXCoNzKhv72pdfjE-63" value="" style="endArrow=classic;html=1;rounded=0;entryX=0.5;entryY=0;entryDx=0;entryDy=0;edgeStyle=orthogonalEdgeStyle;" parent="1" target="V9nqlXCoNzKhv72pdfjE-52" edge="1">
          <mxGeometry width="50" height="50" relative="1" as="geometry">
            <mxPoint x="1990" y="1548.5800000000002" as="sourcePoint" />
            <mxPoint x="2025" y="1549" as="targetPoint" />
          </mxGeometry>
        </mxCell>
        <mxCell id="V9nqlXCoNzKhv72pdfjE-64" value="&lt;font data-font-src=&quot;https://fonts.googleapis.com/css?family=LXGW+WenKai+Mono+TC&quot; face=&quot;LXGW WenKai Mono TC&quot;&gt;E&lt;sub&gt;1&amp;nbsp;&lt;/sub&gt;=&amp;nbsp;&lt;/font&gt;&lt;span style=&quot;font-family: &amp;quot;LXGW WenKai Mono TC&amp;quot;; background-color: transparent; color: light-dark(rgb(51, 51, 51), rgb(193, 193, 193));&quot;&gt;{&#39;AGM-129 ACM&#39;,&lt;/span&gt;&lt;div&gt;&lt;font data-font-src=&quot;https://fonts.googleapis.com/css?family=LXGW+WenKai+Mono+TC&quot; face=&quot;LXGW WenKai Mono TC&quot;&gt;&#39;RGM-109E TLAM-E&#39;,&#39;导弹&#39;&lt;/font&gt;&lt;span style=&quot;font-family: &amp;quot;LXGW WenKai Mono TC&amp;quot;; background-color: transparent; color: light-dark(rgb(51, 51, 51), rgb(193, 193, 193));&quot;&gt;}&lt;/span&gt;&lt;/div&gt;" style="text;html=1;align=center;verticalAlign=middle;whiteSpace=wrap;rounded=0;fillColor=#f5f5f5;fontColor=#333333;strokeColor=none;" parent="1" vertex="1">
          <mxGeometry x="1775" y="1622" width="160" height="49" as="geometry" />
        </mxCell>
        <mxCell id="V9nqlXCoNzKhv72pdfjE-68" value="有效对齐结果" style="text;html=1;align=center;verticalAlign=middle;whiteSpace=wrap;rounded=0;fontStyle=1" parent="1" vertex="1">
          <mxGeometry x="1810.75" y="1665" width="88.5" height="30" as="geometry" />
        </mxCell>
        <mxCell id="V9nqlXCoNzKhv72pdfjE-70" value="子问题生成" style="rounded=1;whiteSpace=wrap;html=1;fontStyle=1" parent="1" vertex="1">
          <mxGeometry x="1580" y="1708" width="70" height="45" as="geometry" />
        </mxCell>
        <mxCell id="V9nqlXCoNzKhv72pdfjE-71" value="停用词检测" style="rounded=1;whiteSpace=wrap;html=1;fontStyle=1;" parent="1" vertex="1">
          <mxGeometry x="2780" y="1370" width="70" height="30" as="geometry" />
        </mxCell>
        <mxCell id="V9nqlXCoNzKhv72pdfjE-72" value="文本清理" style="rounded=1;whiteSpace=wrap;html=1;fontStyle=1;" parent="1" vertex="1">
          <mxGeometry x="2780" y="1410" width="70" height="30" as="geometry" />
        </mxCell>
        <mxCell id="V9nqlXCoNzKhv72pdfjE-75" value="拼写校正" style="rounded=1;whiteSpace=wrap;html=1;fontStyle=1;" parent="1" vertex="1">
          <mxGeometry x="2870" y="1370" width="70" height="30" as="geometry" />
        </mxCell>
        <mxCell id="V9nqlXCoNzKhv72pdfjE-77" value="句子重写" style="rounded=1;whiteSpace=wrap;html=1;fontStyle=1;" parent="1" vertex="1">
          <mxGeometry x="2870" y="1410" width="70" height="30" as="geometry" />
        </mxCell>
        <mxCell id="V9nqlXCoNzKhv72pdfjE-79" value="&lt;span&gt;问题预处理&lt;/span&gt;" style="text;html=1;align=center;verticalAlign=middle;whiteSpace=wrap;rounded=0;fontStyle=1" parent="1" vertex="1">
          <mxGeometry x="2830" y="1446" width="70" height="30" as="geometry" />
        </mxCell>
        <mxCell id="V9nqlXCoNzKhv72pdfjE-90" style="edgeStyle=orthogonalEdgeStyle;rounded=0;orthogonalLoop=1;jettySize=auto;html=1;exitX=0.5;exitY=1;exitDx=0;exitDy=0;entryX=0.5;entryY=0;entryDx=0;entryDy=0;" parent="1" source="V9nqlXCoNzKhv72pdfjE-80" target="V9nqlXCoNzKhv72pdfjE-85" edge="1">
          <mxGeometry relative="1" as="geometry" />
        </mxCell>
        <mxCell id="V9nqlXCoNzKhv72pdfjE-80" value="实体&lt;span style=&quot;background-color: transparent; color: light-dark(rgb(0, 0, 0), rgb(255, 255, 255));&quot;&gt;识别&lt;/span&gt;" style="rounded=1;whiteSpace=wrap;html=1;fontStyle=1" parent="1" vertex="1">
          <mxGeometry x="3040" y="1382.5" width="70" height="45" as="geometry" />
        </mxCell>
        <mxCell id="V9nqlXCoNzKhv72pdfjE-105" style="edgeStyle=orthogonalEdgeStyle;rounded=0;orthogonalLoop=1;jettySize=auto;html=1;exitX=0;exitY=0.5;exitDx=0;exitDy=0;" parent="1" source="V9nqlXCoNzKhv72pdfjE-85" target="V9nqlXCoNzKhv72pdfjE-102" edge="1">
          <mxGeometry relative="1" as="geometry" />
        </mxCell>
        <mxCell id="V9nqlXCoNzKhv72pdfjE-85" value="&lt;font data-font-src=&quot;https://fonts.googleapis.com/css?family=LXGW+WenKai+Mono+TC&quot; face=&quot;LXGW WenKai Mono TC&quot;&gt;E&lt;sub&gt;0&amp;nbsp;&lt;/sub&gt;=&amp;nbsp;&lt;/font&gt;&lt;span style=&quot;font-family: &amp;quot;LXGW WenKai Mono TC&amp;quot;; background-color: transparent; color: light-dark(rgb(51, 51, 51), rgb(193, 193, 193));&quot;&gt;{&#39;AGM-129&#39;,&lt;/span&gt;&lt;span style=&quot;font-family: &amp;quot;LXGW WenKai Mono TC&amp;quot;; background-color: transparent; color: light-dark(rgb(51, 51, 51), rgb(193, 193, 193));&quot;&gt;&#39;RGM-109E&#39;,&lt;/span&gt;&lt;div&gt;&lt;span style=&quot;font-family: &amp;quot;LXGW WenKai Mono TC&amp;quot;; background-color: transparent; color: light-dark(rgb(51, 51, 51), rgb(193, 193, 193));&quot;&gt;&#39;导弹&#39;,&lt;/span&gt;&lt;span style=&quot;font-family: &amp;quot;LXGW WenKai Mono TC&amp;quot;; background-color: transparent; color: light-dark(rgb(51, 51, 51), rgb(193, 193, 193));&quot;&gt;&#39;关系&#39;,....}&lt;/span&gt;&lt;/div&gt;" style="text;html=1;align=center;verticalAlign=middle;whiteSpace=wrap;rounded=0;fillColor=#f5f5f5;fontColor=#333333;strokeColor=none;" parent="1" vertex="1">
          <mxGeometry x="2990" y="1487.5" width="170" height="49" as="geometry" />
        </mxCell>
        <mxCell id="V9nqlXCoNzKhv72pdfjE-86" value="识别结果" style="text;html=1;align=center;verticalAlign=middle;whiteSpace=wrap;rounded=0;fontStyle=1" parent="1" vertex="1">
          <mxGeometry x="3045" y="1532" width="60" height="30" as="geometry" />
        </mxCell>
        <mxCell id="V9nqlXCoNzKhv72pdfjE-91" value="&lt;font data-font-src=&quot;https://fonts.googleapis.com/css?family=LXGW+WenKai+Mono+TC&quot; face=&quot;LXGW WenKai Mono TC&quot;&gt;标准名称&lt;/font&gt;" style="rounded=0;whiteSpace=wrap;html=1;fillColor=#f5f5f5;fontColor=#333333;strokeColor=#666666;" parent="1" vertex="1">
          <mxGeometry x="2460" y="1482" width="110" height="20" as="geometry" />
        </mxCell>
        <mxCell id="V9nqlXCoNzKhv72pdfjE-92" value="&lt;font data-font-src=&quot;https://fonts.googleapis.com/css?family=LXGW+WenKai+Mono+TC&quot; face=&quot;LXGW WenKai Mono TC&quot;&gt;同义词&lt;/font&gt;" style="rounded=0;whiteSpace=wrap;html=1;fillColor=#f5f5f5;fontColor=#333333;strokeColor=#666666;" parent="1" vertex="1">
          <mxGeometry x="2570" y="1482" width="210" height="20" as="geometry" />
        </mxCell>
        <mxCell id="V9nqlXCoNzKhv72pdfjE-93" value="&lt;span style=&quot;color: rgb(51, 51, 51); font-family: &amp;quot;LXGW WenKai Mono TC&amp;quot;;&quot;&gt;&#39;AGM-129 ACM&#39;&lt;/span&gt;" style="rounded=0;whiteSpace=wrap;html=1;fillColor=#f5f5f5;fontColor=#333333;strokeColor=#666666;" parent="1" vertex="1">
          <mxGeometry x="2460" y="1502" width="110" height="20" as="geometry" />
        </mxCell>
        <mxCell id="V9nqlXCoNzKhv72pdfjE-103" style="edgeStyle=orthogonalEdgeStyle;rounded=0;orthogonalLoop=1;jettySize=auto;html=1;exitX=1;exitY=0.5;exitDx=0;exitDy=0;entryX=0;entryY=0.5;entryDx=0;entryDy=0;" parent="1" source="V9nqlXCoNzKhv72pdfjE-94" target="V9nqlXCoNzKhv72pdfjE-102" edge="1">
          <mxGeometry relative="1" as="geometry" />
        </mxCell>
        <mxCell id="V9nqlXCoNzKhv72pdfjE-94" value="&lt;span style=&quot;color: rgb(51, 51, 51); font-family: &amp;quot;LXGW WenKai Mono TC&amp;quot;;&quot;&gt;[&#39;AGM-129&#39;,&#39;AGM129&#39;,&#39;AGM-129A&#39;]&lt;/span&gt;" style="rounded=0;whiteSpace=wrap;html=1;fillColor=#f5f5f5;fontColor=#333333;strokeColor=#666666;" parent="1" vertex="1">
          <mxGeometry x="2570" y="1502" width="210" height="20" as="geometry" />
        </mxCell>
        <mxCell id="V9nqlXCoNzKhv72pdfjE-95" value="&lt;span style=&quot;color: rgb(51, 51, 51); font-family: &amp;quot;LXGW WenKai Mono TC&amp;quot;;&quot;&gt;&#39;RGM-109E TLAM-E&#39;&lt;/span&gt;" style="rounded=0;whiteSpace=wrap;html=1;fillColor=#f5f5f5;fontColor=#333333;strokeColor=#666666;" parent="1" vertex="1">
          <mxGeometry x="2460" y="1522" width="110" height="20" as="geometry" />
        </mxCell>
        <mxCell id="V9nqlXCoNzKhv72pdfjE-96" value="&lt;span style=&quot;color: rgb(51, 51, 51); font-family: &amp;quot;LXGW WenKai Mono TC&amp;quot;;&quot;&gt;[&#39;RGM109E&#39;,&#39;RGM-109E&#39;,&#39;TLAM-E&#39;]&lt;/span&gt;" style="rounded=0;whiteSpace=wrap;html=1;fillColor=#f5f5f5;fontColor=#333333;strokeColor=#666666;" parent="1" vertex="1">
          <mxGeometry x="2570" y="1522" width="210" height="20" as="geometry" />
        </mxCell>
        <mxCell id="V9nqlXCoNzKhv72pdfjE-97" value="&lt;span style=&quot;color: rgb(51, 51, 51); font-family: &amp;quot;LXGW WenKai Mono TC&amp;quot;;&quot;&gt;&#39;导弹&#39;&lt;/span&gt;" style="rounded=0;whiteSpace=wrap;html=1;fillColor=#f5f5f5;fontColor=#333333;strokeColor=#666666;" parent="1" vertex="1">
          <mxGeometry x="2460" y="1542" width="110" height="20" as="geometry" />
        </mxCell>
        <mxCell id="V9nqlXCoNzKhv72pdfjE-98" value="&lt;span style=&quot;color: rgb(51, 51, 51); font-family: &amp;quot;LXGW WenKai Mono TC&amp;quot;;&quot;&gt;[&#39;飞弹&#39;]&lt;/span&gt;" style="rounded=0;whiteSpace=wrap;html=1;fillColor=#f5f5f5;fontColor=#333333;strokeColor=#666666;" parent="1" vertex="1">
          <mxGeometry x="2570" y="1542" width="210" height="20" as="geometry" />
        </mxCell>
        <mxCell id="V9nqlXCoNzKhv72pdfjE-99" value="&lt;font face=&quot;LXGW WenKai Mono TC&quot;&gt;...&lt;/font&gt;" style="rounded=0;whiteSpace=wrap;html=1;fillColor=#f5f5f5;fontColor=#333333;strokeColor=#666666;" parent="1" vertex="1">
          <mxGeometry x="2460" y="1562" width="110" height="20" as="geometry" />
        </mxCell>
        <mxCell id="V9nqlXCoNzKhv72pdfjE-100" value="&lt;font face=&quot;LXGW WenKai Mono TC&quot;&gt;......&lt;/font&gt;" style="rounded=0;whiteSpace=wrap;html=1;fillColor=#f5f5f5;fontColor=#333333;strokeColor=#666666;" parent="1" vertex="1">
          <mxGeometry x="2570" y="1562" width="210" height="20" as="geometry" />
        </mxCell>
        <mxCell id="V9nqlXCoNzKhv72pdfjE-101" value="同义词表" style="text;html=1;align=center;verticalAlign=middle;whiteSpace=wrap;rounded=0;fontStyle=1" parent="1" vertex="1">
          <mxGeometry x="2591" y="1577" width="60" height="30" as="geometry" />
        </mxCell>
        <mxCell id="V9nqlXCoNzKhv72pdfjE-108" style="edgeStyle=orthogonalEdgeStyle;rounded=0;orthogonalLoop=1;jettySize=auto;html=1;exitX=0.5;exitY=1;exitDx=0;exitDy=0;entryX=0;entryY=0.5;entryDx=0;entryDy=0;" parent="1" source="V9nqlXCoNzKhv72pdfjE-102" target="V9nqlXCoNzKhv72pdfjE-106" edge="1">
          <mxGeometry relative="1" as="geometry" />
        </mxCell>
        <mxCell id="V9nqlXCoNzKhv72pdfjE-102" value="实体对齐" style="rounded=1;whiteSpace=wrap;html=1;fontStyle=1" parent="1" vertex="1">
          <mxGeometry x="2860" y="1489.5" width="70" height="45" as="geometry" />
        </mxCell>
        <mxCell id="V9nqlXCoNzKhv72pdfjE-106" value="&lt;font data-font-src=&quot;https://fonts.googleapis.com/css?family=LXGW+WenKai+Mono+TC&quot; face=&quot;LXGW WenKai Mono TC&quot;&gt;E&lt;sub&gt;1&amp;nbsp;&lt;/sub&gt;=&amp;nbsp;&lt;/font&gt;&lt;span style=&quot;font-family: &amp;quot;LXGW WenKai Mono TC&amp;quot;; background-color: transparent; color: light-dark(rgb(51, 51, 51), rgb(193, 193, 193));&quot;&gt;{&#39;AGM-129 ACM&#39;,&lt;/span&gt;&lt;div&gt;&lt;font data-font-src=&quot;https://fonts.googleapis.com/css?family=LXGW+WenKai+Mono+TC&quot; face=&quot;LXGW WenKai Mono TC&quot;&gt;&#39;RGM-109E TLAM-E&#39;,&#39;导弹&#39;&lt;/font&gt;&lt;span style=&quot;font-family: &amp;quot;LXGW WenKai Mono TC&amp;quot;; background-color: transparent; color: light-dark(rgb(51, 51, 51), rgb(193, 193, 193));&quot;&gt;}&lt;/span&gt;&lt;/div&gt;" style="text;html=1;align=center;verticalAlign=middle;whiteSpace=wrap;rounded=0;fillColor=#f5f5f5;fontColor=#333333;strokeColor=none;" parent="1" vertex="1">
          <mxGeometry x="2995" y="1596" width="160" height="49" as="geometry" />
        </mxCell>
        <mxCell id="V9nqlXCoNzKhv72pdfjE-107" value="有效对齐结果" style="text;html=1;align=center;verticalAlign=middle;whiteSpace=wrap;rounded=0;fontStyle=1" parent="1" vertex="1">
          <mxGeometry x="3030.75" y="1639" width="88.5" height="30" as="geometry" />
        </mxCell>
        <mxCell id="V9nqlXCoNzKhv72pdfjE-109" value="&lt;font data-font-src=&quot;https://fonts.googleapis.com/css?family=LXGW+WenKai+Mono+TC&quot; face=&quot;LXGW WenKai Mono TC&quot;&gt;Q = {&lt;br&gt;&amp;nbsp; &amp;nbsp;&#39;AGM-129 ACM和RGM-109E TLAM-E存在哪些直接关联？&#39;&lt;/font&gt;&lt;span style=&quot;font-family: &amp;quot;LXGW WenKai Mono TC&amp;quot;; background-color: transparent; color: light-dark(rgb(51, 51, 51), rgb(193, 193, 193));&quot;&gt;,&lt;/span&gt;&lt;div&gt;&lt;font data-font-src=&quot;https://fonts.googleapis.com/css?family=LXGW+WenKai+Mono+TC&quot; face=&quot;LXGW WenKai Mono TC&quot;&gt;&amp;nbsp; &amp;nbsp;&#39;...存在哪些多跳联系？&#39;,&lt;/font&gt;&lt;/div&gt;&lt;div&gt;&lt;font data-font-src=&quot;https://fonts.googleapis.com/css?family=LXGW+WenKai+Mono+TC&quot; face=&quot;LXGW WenKai Mono TC&quot;&gt;&amp;nbsp; &amp;nbsp;&#39;...具有哪些同名属性？并比较它们的值的关系&#39;,&lt;/font&gt;&lt;/div&gt;&lt;div&gt;&lt;font data-font-src=&quot;https://fonts.googleapis.com/css?family=LXGW+WenKai+Mono+TC&quot; face=&quot;LXGW WenKai Mono TC&quot;&gt;&amp;nbsp; &amp;nbsp; ...&lt;/font&gt;&lt;/div&gt;&lt;div&gt;&lt;font data-font-src=&quot;https://fonts.googleapis.com/css?family=LXGW+WenKai+Mono+TC&quot; face=&quot;LXGW WenKai Mono TC&quot;&gt;&amp;nbsp; &amp;nbsp;}&lt;/font&gt;&lt;/div&gt;" style="text;html=1;align=left;verticalAlign=middle;whiteSpace=wrap;rounded=0;fillColor=#f5f5f5;fontColor=#333333;strokeColor=none;" parent="1" vertex="1">
          <mxGeometry x="2530" y="1656" width="320" height="104" as="geometry" />
        </mxCell>
        <mxCell id="sR9kc4OI0VLyR8yHZeqt-23" style="edgeStyle=orthogonalEdgeStyle;rounded=0;orthogonalLoop=1;jettySize=auto;html=1;exitX=1;exitY=0.5;exitDx=0;exitDy=0;" edge="1" parent="1" source="sR9kc4OI0VLyR8yHZeqt-2" target="sR9kc4OI0VLyR8yHZeqt-3">
          <mxGeometry relative="1" as="geometry" />
        </mxCell>
        <mxCell id="sR9kc4OI0VLyR8yHZeqt-2" value="用户提问" style="rounded=1;whiteSpace=wrap;html=1;" vertex="1" parent="1">
          <mxGeometry x="3480" y="1412" width="80" height="40" as="geometry" />
        </mxCell>
        <mxCell id="sR9kc4OI0VLyR8yHZeqt-22" style="edgeStyle=orthogonalEdgeStyle;rounded=0;orthogonalLoop=1;jettySize=auto;html=1;exitX=1;exitY=0.5;exitDx=0;exitDy=0;" edge="1" parent="1" source="sR9kc4OI0VLyR8yHZeqt-3" target="sR9kc4OI0VLyR8yHZeqt-8">
          <mxGeometry relative="1" as="geometry" />
        </mxCell>
        <mxCell id="sR9kc4OI0VLyR8yHZeqt-3" value="" style="rounded=0;whiteSpace=wrap;html=1;" vertex="1" parent="1">
          <mxGeometry x="3598" y="1366" width="200" height="132" as="geometry" />
        </mxCell>
        <mxCell id="sR9kc4OI0VLyR8yHZeqt-4" value="问题预处理模块" style="text;html=1;align=center;verticalAlign=middle;whiteSpace=wrap;rounded=0;" vertex="1" parent="1">
          <mxGeometry x="3654" y="1467" width="88" height="30" as="geometry" />
        </mxCell>
        <mxCell id="sR9kc4OI0VLyR8yHZeqt-24" style="edgeStyle=orthogonalEdgeStyle;rounded=0;orthogonalLoop=1;jettySize=auto;html=1;exitX=1;exitY=0.5;exitDx=0;exitDy=0;entryX=0.5;entryY=0;entryDx=0;entryDy=0;dashed=1;" edge="1" parent="1" source="sR9kc4OI0VLyR8yHZeqt-5" target="sR9kc4OI0VLyR8yHZeqt-19">
          <mxGeometry relative="1" as="geometry">
            <Array as="points">
              <mxPoint x="3830" y="1398" />
              <mxPoint x="3830" y="1340" />
              <mxPoint x="4410" y="1340" />
            </Array>
          </mxGeometry>
        </mxCell>
        <mxCell id="sR9kc4OI0VLyR8yHZeqt-5" value="敏感词拦截（合规性过滤）" style="rounded=1;whiteSpace=wrap;html=1;" vertex="1" parent="1">
          <mxGeometry x="3618" y="1378" width="160" height="40" as="geometry" />
        </mxCell>
        <mxCell id="sR9kc4OI0VLyR8yHZeqt-6" value="拼写校正" style="rounded=1;whiteSpace=wrap;html=1;" vertex="1" parent="1">
          <mxGeometry x="3618" y="1427" width="70" height="40" as="geometry" />
        </mxCell>
        <mxCell id="sR9kc4OI0VLyR8yHZeqt-7" value="文本清理" style="rounded=1;whiteSpace=wrap;html=1;" vertex="1" parent="1">
          <mxGeometry x="3708" y="1427" width="70" height="40" as="geometry" />
        </mxCell>
        <mxCell id="sR9kc4OI0VLyR8yHZeqt-21" style="edgeStyle=orthogonalEdgeStyle;rounded=0;orthogonalLoop=1;jettySize=auto;html=1;exitX=1;exitY=0.5;exitDx=0;exitDy=0;entryX=0;entryY=0.5;entryDx=0;entryDy=0;" edge="1" parent="1" source="sR9kc4OI0VLyR8yHZeqt-8" target="sR9kc4OI0VLyR8yHZeqt-13">
          <mxGeometry relative="1" as="geometry" />
        </mxCell>
        <mxCell id="sR9kc4OI0VLyR8yHZeqt-8" value="" style="rounded=0;whiteSpace=wrap;html=1;" vertex="1" parent="1">
          <mxGeometry x="3850" y="1366" width="200" height="132" as="geometry" />
        </mxCell>
        <mxCell id="sR9kc4OI0VLyR8yHZeqt-9" value="实体识别与处理模块" style="text;html=1;align=center;verticalAlign=middle;whiteSpace=wrap;rounded=0;" vertex="1" parent="1">
          <mxGeometry x="3893" y="1467" width="114" height="30" as="geometry" />
        </mxCell>
        <mxCell id="sR9kc4OI0VLyR8yHZeqt-10" value="词典增强分词" style="rounded=1;whiteSpace=wrap;html=1;" vertex="1" parent="1">
          <mxGeometry x="3870" y="1378" width="80" height="40" as="geometry" />
        </mxCell>
        <mxCell id="sR9kc4OI0VLyR8yHZeqt-11" value="实体对齐" style="rounded=1;whiteSpace=wrap;html=1;" vertex="1" parent="1">
          <mxGeometry x="3960" y="1378" width="70" height="40" as="geometry" />
        </mxCell>
        <mxCell id="sR9kc4OI0VLyR8yHZeqt-26" style="edgeStyle=orthogonalEdgeStyle;rounded=0;orthogonalLoop=1;jettySize=auto;html=1;exitX=1;exitY=0.5;exitDx=0;exitDy=0;entryX=0.5;entryY=1;entryDx=0;entryDy=0;dashed=1;" edge="1" parent="1" source="sR9kc4OI0VLyR8yHZeqt-12" target="sR9kc4OI0VLyR8yHZeqt-19">
          <mxGeometry relative="1" as="geometry">
            <Array as="points">
              <mxPoint x="4090" y="1447" />
              <mxPoint x="4090" y="1510" />
              <mxPoint x="4410" y="1510" />
            </Array>
          </mxGeometry>
        </mxCell>
        <mxCell id="sR9kc4OI0VLyR8yHZeqt-12" value="非强相关问题的识别预处理" style="rounded=1;whiteSpace=wrap;html=1;" vertex="1" parent="1">
          <mxGeometry x="3870" y="1427" width="160" height="40" as="geometry" />
        </mxCell>
        <mxCell id="sR9kc4OI0VLyR8yHZeqt-20" style="edgeStyle=orthogonalEdgeStyle;rounded=0;orthogonalLoop=1;jettySize=auto;html=1;exitX=1;exitY=0.5;exitDx=0;exitDy=0;" edge="1" parent="1" source="sR9kc4OI0VLyR8yHZeqt-13" target="sR9kc4OI0VLyR8yHZeqt-19">
          <mxGeometry relative="1" as="geometry" />
        </mxCell>
        <mxCell id="sR9kc4OI0VLyR8yHZeqt-13" value="" style="rounded=0;whiteSpace=wrap;html=1;" vertex="1" parent="1">
          <mxGeometry x="4110" y="1366" width="200" height="132" as="geometry" />
        </mxCell>
        <mxCell id="sR9kc4OI0VLyR8yHZeqt-14" value="问题解答模块" style="text;html=1;align=center;verticalAlign=middle;whiteSpace=wrap;rounded=0;" vertex="1" parent="1">
          <mxGeometry x="4154" y="1469" width="114" height="30" as="geometry" />
        </mxCell>
        <mxCell id="sR9kc4OI0VLyR8yHZeqt-15" value="问题意图分类" style="rounded=1;whiteSpace=wrap;html=1;" vertex="1" parent="1">
          <mxGeometry x="4126" y="1378" width="80" height="40" as="geometry" />
        </mxCell>
        <mxCell id="sR9kc4OI0VLyR8yHZeqt-16" value="子问题分解" style="rounded=1;whiteSpace=wrap;html=1;" vertex="1" parent="1">
          <mxGeometry x="4216" y="1378" width="80" height="40" as="geometry" />
        </mxCell>
        <mxCell id="sR9kc4OI0VLyR8yHZeqt-17" value="图数据库交互" style="rounded=1;whiteSpace=wrap;html=1;" vertex="1" parent="1">
          <mxGeometry x="4126" y="1427" width="80" height="40" as="geometry" />
        </mxCell>
        <mxCell id="sR9kc4OI0VLyR8yHZeqt-18" value="多模态&lt;div&gt;答案生成&lt;/div&gt;" style="rounded=1;whiteSpace=wrap;html=1;" vertex="1" parent="1">
          <mxGeometry x="4216" y="1427" width="80" height="40" as="geometry" />
        </mxCell>
        <mxCell id="sR9kc4OI0VLyR8yHZeqt-27" style="edgeStyle=orthogonalEdgeStyle;rounded=0;orthogonalLoop=1;jettySize=auto;html=1;exitX=1;exitY=0.5;exitDx=0;exitDy=0;entryX=0.5;entryY=0;entryDx=0;entryDy=0;dashed=1;" edge="1" parent="1" source="sR9kc4OI0VLyR8yHZeqt-19" target="sR9kc4OI0VLyR8yHZeqt-2">
          <mxGeometry relative="1" as="geometry">
            <Array as="points">
              <mxPoint x="4470" y="1432" />
              <mxPoint x="4470" y="1330" />
              <mxPoint x="3520" y="1330" />
            </Array>
          </mxGeometry>
        </mxCell>
        <mxCell id="sR9kc4OI0VLyR8yHZeqt-19" value="系统回答" style="rounded=1;whiteSpace=wrap;html=1;" vertex="1" parent="1">
          <mxGeometry x="4370" y="1412" width="80" height="40" as="geometry" />
        </mxCell>
      </root>
    </mxGraphModel>
  </diagram>
</mxfile>
